<?xml version="1.0" encoding="UTF-8" standalone="no"?>
<svg
   xmlns:dc="http://purl.org/dc/elements/1.1/"
   xmlns:cc="http://creativecommons.org/ns#"
   xmlns:rdf="http://www.w3.org/1999/02/22-rdf-syntax-ns#"
   xmlns:svg="http://www.w3.org/2000/svg"
   xmlns="http://www.w3.org/2000/svg"
   xmlns:sodipodi="http://sodipodi.sourceforge.net/DTD/sodipodi-0.dtd"
   xmlns:inkscape="http://www.inkscape.org/namespaces/inkscape"
   id="svg4525"
   viewBox="0 0 6.5295134 6.996"
   width="56"
   height="60"
   version="1.1"
   sodipodi:docname="logo-nodejs.svg"
   inkscape:export-filename="/home/www/neocarvajal.github.io/assets/images/logo-javascript.svg.png"
   inkscape:export-xdpi="96"
   inkscape:export-ydpi="96"
   inkscape:version="0.92.4 5da689c313, 2019-01-14">
  <metadata
     id="metadata991">
    <rdf:RDF>
      <cc:Work
         rdf:about="">
        <dc:format>image/svg+xml</dc:format>
        <dc:type
           rdf:resource="http://purl.org/dc/dcmitype/StillImage" />
        <dc:title></dc:title>
      </cc:Work>
    </rdf:RDF>
  </metadata>
  <defs
     id="defs989" />
  <sodipodi:namedview
     pagecolor="#ffffff"
     bordercolor="#666666"
     borderopacity="1"
     objecttolerance="10"
     gridtolerance="10"
     guidetolerance="10"
     inkscape:pageopacity="0"
     inkscape:pageshadow="2"
     inkscape:window-width="1440"
     inkscape:window-height="830"
     id="namedview987"
     showgrid="false"
     inkscape:zoom="5.0898058"
     inkscape:cx="43.267355"
     inkscape:cy="27.452473"
     inkscape:window-x="0"
     inkscape:window-y="34"
     inkscape:window-maximized="1"
     inkscape:current-layer="g5679" />
  <style
     id="style979">.st0{fill:#d4b830}.st1,.st2{opacity:.986;fill:#ebebeb;fill-opacity:0;enable-background:new}.st2{fill-opacity:.9216}.st3{fill:#fdd83c}</style>
  <style
     id="style4914">.st0{enable-background:new}.st1{opacity:.783}.st2{opacity:.576;enable-background:new}.st3{fill:none}.st4,.st5{opacity:.67;fill:url(#SVGID_1_);enable-background:new}.st5{opacity:.505;fill:url(#SVGID_2_)}.st6{fill:url(#SVGID_3_)}.st7,.st8{enable-background:new}.st7{fill:url(#SVGID_4_);opacity:.217}.st8{opacity:.276;filter:url(#l)}.st9{fill:url(#SVGID_5_)}.st10,.st11{enable-background:new}.st10{fill:url(#SVGID_6_);opacity:.453}.st11{opacity:.512;filter:url(#o)}.st12{fill:url(#SVGID_7_)}.st13,.st14{enable-background:new}.st13{fill:url(#SVGID_8_);opacity:.286}.st14{opacity:.621;filter:url(#r)}.st15{fill:url(#SVGID_9_)}.st16{filter:url(#t)}.st17{fill:url(#SVGID_10_)}.st18{opacity:.286;fill:url(#SVGID_11_);enable-background:new}.st19{fill:url(#SVGID_12_)}.st20{fill:url(#SVGID_13_)}.st21{fill:url(#SVGID_14_)}.st22{opacity:.286;fill:url(#SVGID_15_);enable-background:new}.st23{fill:url(#SVGID_16_)}.st24{opacity:.616;filter:url(#w);enable-background:new}.st25{fill:url(#SVGID_17_)}.st26{fill:none;stroke:url(#SVGID_18_);stroke-width:1.004}.st27{opacity:.325;filter:url(#A);enable-background:new}.st28{fill:url(#SVGID_19_)}.st29{fill:url(#SVGID_20_)}.st30{opacity:.478;filter:url(#D);enable-background:new}.st31{fill:url(#SVGID_21_)}.st32{opacity:.586;fill:#fff}.st32,.st33,.st34{enable-background:new}.st33{fill:url(#SVGID_22_);opacity:.251}.st34{opacity:.363;filter:url(#F)}.st35{fill:url(#SVGID_23_)}</style>
  <style
     id="style5276">.st0{display:none}.st1{display:inline}.st2{fill:#fba919}.st3{fill:#e78724}.st4{fill:#87ccee}.st5{fill:#fdc168}.st6{fill:#fff}.st7{fill:#c9c9c9}.st8{fill:#463014}</style>
  <g
     id="g5536"
     transform="translate(0.20280316,1.5097568)">
    <g
       id="g5679"
       transform="matrix(0.1166,0,0,0.1166,-5.6517503,-0.17812309)">
      <g
         id="g5932"
         transform="matrix(0.21394823,0,0,0.21394823,47.346232,-11.581539)"
         style="fill:#8cc84b">
        <path
           id="path5928"
           d="m 116.504,3.58 c 6.962,-3.985 16.03,-4.003 22.986,0 34.995,19.774 70.001,39.517 104.99,59.303 6.581,3.707 10.983,11.031 10.916,18.614 v 118.968 c 0.049,7.897 -4.788,15.396 -11.731,19.019 -34.88,19.665 -69.742,39.354 -104.616,59.019 -7.106,4.063 -16.356,3.75 -23.24,-0.646 -10.457,-6.062 -20.932,-12.094 -31.39,-18.15 -2.137,-1.274 -4.546,-2.288 -6.055,-4.36 1.334,-1.798 3.719,-2.022 5.657,-2.807 4.365,-1.388 8.374,-3.616 12.384,-5.778 1.014,-0.694 2.252,-0.428 3.224,0.193 8.942,5.127 17.805,10.403 26.777,15.481 1.914,1.105 3.852,-0.362 5.488,-1.274 34.228,-19.345 68.498,-38.617 102.72,-57.968 1.268,-0.61 1.969,-1.956 1.866,-3.345 0.024,-39.245 0.006,-78.497 0.012,-117.742 0.145,-1.576 -0.767,-3.025 -2.192,-3.67 -34.759,-19.575 -69.5,-39.18 -104.253,-58.76 a 3.621,3.621 0 0 0 -4.094,-0.006 C 91.2,39.257 56.465,58.88 21.712,78.454 c -1.42,0.646 -2.373,2.071 -2.204,3.653 0.006,39.245 0,78.497 0,117.748 a 3.329,3.329 0 0 0 1.89,3.303 c 9.274,5.259 18.56,10.481 27.84,15.722 5.228,2.814 11.647,4.486 17.407,2.33 5.083,-1.823 8.646,-7.01 8.549,-12.407 0.048,-39.016 -0.024,-78.038 0.036,-117.048 -0.127,-1.732 1.516,-3.163 3.2,-3 4.456,-0.03 8.918,-0.06 13.374,0.012 1.86,-0.042 3.14,1.823 2.91,3.568 -0.018,39.263 0.048,78.527 -0.03,117.79 0.012,10.464 -4.287,21.85 -13.966,26.97 -11.924,6.177 -26.662,4.867 -38.442,-1.056 -10.198,-5.09 -19.93,-11.097 -29.947,-16.55 C 5.368,215.886 0.555,208.357 0.604,200.466 V 81.497 C 0.531,73.757 5.108,66.3 11.894,62.647 46.768,42.966 81.636,23.27 116.504,3.58 Z"
           inkscape:connector-curvature="0" />
        <path
           id="path5930"
           d="m 146.928,85.99 c 15.21,-0.979 31.493,-0.58 45.18,6.913 10.597,5.742 16.472,17.793 16.659,29.566 -0.296,1.588 -1.956,2.464 -3.472,2.355 -4.413,-0.006 -8.827,0.06 -13.24,-0.03 -1.872,0.072 -2.96,-1.654 -3.195,-3.309 -1.268,-5.633 -4.34,-11.212 -9.642,-13.929 -8.139,-4.075 -17.576,-3.87 -26.451,-3.785 -6.479,0.344 -13.446,0.905 -18.935,4.715 -4.214,2.886 -5.494,8.712 -3.99,13.404 1.418,3.369 5.307,4.456 8.489,5.458 18.33,4.794 37.754,4.317 55.734,10.626 7.444,2.572 14.726,7.572 17.274,15.366 3.333,10.446 1.872,22.932 -5.56,31.318 -6.027,6.901 -14.805,10.657 -23.56,12.697 -11.647,2.597 -23.734,2.663 -35.562,1.51 -11.122,-1.268 -22.696,-4.19 -31.282,-11.768 -7.342,-6.375 -10.928,-16.308 -10.572,-25.895 0.085,-1.619 1.697,-2.748 3.248,-2.615 4.444,-0.036 8.888,-0.048 13.332,0.006 1.775,-0.127 3.091,1.407 3.182,3.08 0.82,5.367 2.837,11 7.517,14.182 9.032,5.827 20.365,5.428 30.707,5.591 8.568,-0.38 18.186,-0.495 25.178,-6.158 3.689,-3.23 4.782,-8.634 3.785,-13.283 -1.08,-3.925 -5.186,-5.754 -8.712,-6.95 -18.095,-5.724 -37.736,-3.647 -55.656,-10.12 -7.275,-2.571 -14.31,-7.432 -17.105,-14.906 -3.9,-10.578 -2.113,-23.662 6.098,-31.765 8.006,-8.06 19.563,-11.164 30.551,-12.275 z"
           inkscape:connector-curvature="0" />
      </g>
    </g>
  </g>
</svg>
