<?xml version="1.0" encoding="UTF-8" standalone="no"?>
<svg
   xmlns:dc="http://purl.org/dc/elements/1.1/"
   xmlns:cc="http://creativecommons.org/ns#"
   xmlns:rdf="http://www.w3.org/1999/02/22-rdf-syntax-ns#"
   xmlns:svg="http://www.w3.org/2000/svg"
   xmlns="http://www.w3.org/2000/svg"
   xmlns:sodipodi="http://sodipodi.sourceforge.net/DTD/sodipodi-0.dtd"
   xmlns:inkscape="http://www.inkscape.org/namespaces/inkscape"
   id="svg4525"
   viewBox="0 0 6.5295134 6.996"
   width="56"
   height="60"
   version="1.1"
   sodipodi:docname="logo-php.svg"
   inkscape:export-filename="/home/www/neocarvajal.github.io/assets/images/logo-javascript.svg.png"
   inkscape:export-xdpi="96"
   inkscape:export-ydpi="96"
   inkscape:version="0.92.4 5da689c313, 2019-01-14">
  <metadata
     id="metadata991">
    <rdf:RDF>
      <cc:Work
         rdf:about="">
        <dc:format>image/svg+xml</dc:format>
        <dc:type
           rdf:resource="http://purl.org/dc/dcmitype/StillImage" />
        <dc:title></dc:title>
      </cc:Work>
    </rdf:RDF>
  </metadata>
  <defs
     id="defs989" />
  <sodipodi:namedview
     pagecolor="#ffffff"
     bordercolor="#666666"
     borderopacity="1"
     objecttolerance="10"
     gridtolerance="10"
     guidetolerance="10"
     inkscape:pageopacity="0"
     inkscape:pageshadow="2"
     inkscape:window-width="1440"
     inkscape:window-height="830"
     id="namedview987"
     showgrid="false"
     inkscape:zoom="7.419075"
     inkscape:cx="5.1732422"
     inkscape:cy="25.844796"
     inkscape:window-x="0"
     inkscape:window-y="34"
     inkscape:window-maximized="1"
     inkscape:current-layer="g5679" />
  <style
     id="style979">.st0{fill:#d4b830}.st1,.st2{opacity:.986;fill:#ebebeb;fill-opacity:0;enable-background:new}.st2{fill-opacity:.9216}.st3{fill:#fdd83c}</style>
  <style
     id="style4914">.st0{enable-background:new}.st1{opacity:.783}.st2{opacity:.576;enable-background:new}.st3{fill:none}.st4,.st5{opacity:.67;fill:url(#SVGID_1_);enable-background:new}.st5{opacity:.505;fill:url(#SVGID_2_)}.st6{fill:url(#SVGID_3_)}.st7,.st8{enable-background:new}.st7{fill:url(#SVGID_4_);opacity:.217}.st8{opacity:.276;filter:url(#l)}.st9{fill:url(#SVGID_5_)}.st10,.st11{enable-background:new}.st10{fill:url(#SVGID_6_);opacity:.453}.st11{opacity:.512;filter:url(#o)}.st12{fill:url(#SVGID_7_)}.st13,.st14{enable-background:new}.st13{fill:url(#SVGID_8_);opacity:.286}.st14{opacity:.621;filter:url(#r)}.st15{fill:url(#SVGID_9_)}.st16{filter:url(#t)}.st17{fill:url(#SVGID_10_)}.st18{opacity:.286;fill:url(#SVGID_11_);enable-background:new}.st19{fill:url(#SVGID_12_)}.st20{fill:url(#SVGID_13_)}.st21{fill:url(#SVGID_14_)}.st22{opacity:.286;fill:url(#SVGID_15_);enable-background:new}.st23{fill:url(#SVGID_16_)}.st24{opacity:.616;filter:url(#w);enable-background:new}.st25{fill:url(#SVGID_17_)}.st26{fill:none;stroke:url(#SVGID_18_);stroke-width:1.004}.st27{opacity:.325;filter:url(#A);enable-background:new}.st28{fill:url(#SVGID_19_)}.st29{fill:url(#SVGID_20_)}.st30{opacity:.478;filter:url(#D);enable-background:new}.st31{fill:url(#SVGID_21_)}.st32{opacity:.586;fill:#fff}.st32,.st33,.st34{enable-background:new}.st33{fill:url(#SVGID_22_);opacity:.251}.st34{opacity:.363;filter:url(#F)}.st35{fill:url(#SVGID_23_)}</style>
  <style
     id="style5276">.st0{display:none}.st1{display:inline}.st2{fill:#fba919}.st3{fill:#e78724}.st4{fill:#87ccee}.st5{fill:#fdc168}.st6{fill:#fff}.st7{fill:#c9c9c9}.st8{fill:#463014}</style>
  <g
     id="g5536"
     transform="translate(0.20280316,1.5097568)">
    <g
       id="g5679"
       transform="matrix(0.1166,0,0,0.1166,-5.6517503,-0.17812309)">
      <g
         id="g5686"
         transform="matrix(1.9723969,0,0,1.9723969,43.173243,-12.97888)">
        <rect
           width="28"
           height="28"
           x="-30"
           y="-30"
           rx="1.4"
           ry="1.4"
           transform="matrix(0,-1,-1,0,0,0)"
           style="opacity:0.2"
           id="rect5656" />
        <rect
           style="fill:#465489"
           width="28"
           height="28"
           x="-30"
           y="-30"
           rx="1.4"
           ry="1.4"
           transform="matrix(0,-1,-1,0,0,0)"
           id="rect5658" />
        <path
           inkscape:connector-curvature="0"
           d="m 14.592055,11.941016 c -0.4277,2.2015 -0.924448,4.74181 -1.352148,6.94121 h 1.430078 c 0.2464,-1.2628 0.489212,-2.5144 0.732812,-3.7625 0.4865,0 0.948303,-0.0162 1.408203,0.0041 0.4522,0.0196 0.623175,0.239094 0.546875,0.683594 -0.105,0.6062 -0.227664,1.210825 -0.343164,1.815625 -0.0798,0.4172 -0.160726,0.834685 -0.244726,1.271485 0.4683,-1e-6 0.916452,0.0015 1.364452,-0.0055 0.0364,-7e-4 0.09477,-0.05851 0.105274,-0.0998 0.0399,-0.1554 0.06424,-0.316215 0.09434,-0.474414 0.1722,-0.8988 0.355863,-1.796561 0.514063,-2.697461 0.139299,-0.7952 -0.188902,-1.300425 -0.966602,-1.465625 -0.3682,-0.0784 -0.752664,-0.08847 -1.130664,-0.105274 -0.3738,-0.0168 -0.749,-0.0027 -1.1375,-0.0027 0.1141,-0.5915 0.294722,-1.516834 0.407422,-2.102734 H 14.592059 Z M 8.218227,14.04375 c -0.0441,0 -0.089119,0.0067 -0.1367191,0.01094 C 7.6538079,16.25549 7.0887,18.795768 6.661,20.997268 h 1.4410158 c 0.1085,-0.553 0.3565737,-1.437286 0.4552737,-1.975586 0.0189,-0.1036 0.059927,-0.129216 0.1572263,-0.128516 0.4732,0.0021 0.9473408,0.0128 1.4191412,-0.0082 0.2975,-0.0133 0.598204,-0.05235 0.887304,-0.123047 1.0829,-0.2646 2.179417,-1.420431 2.057617,-3.057031 -0.0623,-0.8393 -0.537217,-1.358394 -1.357617,-1.558594 -0.2499,-0.0616 -0.511459,-0.09494 -0.768359,-0.09844 -0.9114,-0.0112 -1.822975,-0.0041 -2.734375,-0.0041 z m 11.872656,0 c -0.0336,0 -0.06671,0.0054 -0.108008,0.0096 C 19.555175,16.251322 18.9894,18.7964 18.561,21 h 1.439649 c 0.1078,-0.5488 0.356606,-1.433884 0.453906,-1.971484 0.021,-0.1127 0.0673,-0.136719 0.170898,-0.136719 0.4844,0.0028 0.969621,0.01063 1.453321,-0.0055 0.6398,-0.0217 1.243003,-0.166021 1.758203,-0.578321 0.7952,-0.6356 1.162339,-1.473577 1.152539,-2.475976 -0.0077,-0.853301 -0.499439,-1.46754 -1.327539,-1.67754 -0.2548,-0.0644 -0.522266,-0.101773 -0.784766,-0.105273 -0.9282,-0.0126 -1.857428,-0.0055 -2.786328,-0.0055 z M 9.32975,15.054101 c 0.5446,0.0322 1.08208,0.03181 1.60918,0.103907 0.4613,0.0637 0.656709,0.33087 0.637109,0.79707 -0.0126,0.2842 -0.06379,0.571922 -0.142187,0.844922 -0.1743,0.6076 -0.604833,0.945284 -1.223633,1.008984 -0.4619999,0.0476 -0.9303111,0.04192 -1.4287111,0.06152 0.1855,-0.9534 0.3634421,-1.865806 0.5482421,-2.816406 z m 11.9,0.0014 c 0.5432,0.0315 1.080712,0.02974 1.607812,0.10254 0.4627,0.063 0.659477,0.327435 0.638477,0.794335 -0.0133,0.294702 -0.06706,0.594935 -0.151757,0.877735 -0.1778,0.5908 -0.607929,0.917306 -1.211329,0.978906 -0.462,0.0476 -0.928178,0.04192 -1.430078,0.06152 0.1855,-0.9534 0.362075,-1.865139 0.546875,-2.815039 z"
           style="opacity:0.2;isolation:isolate;fill-rule:evenodd"
           id="path5660" />
        <path
           inkscape:connector-curvature="0"
           style="isolation:isolate;fill:#ffffff;fill-rule:evenodd"
           d="m 14.592055,10.941016 c -0.4277,2.2015 -0.924448,4.74181 -1.352148,6.94121 h 1.430078 c 0.2464,-1.2628 0.489212,-2.5144 0.732812,-3.7625 0.4865,0 0.948303,-0.0162 1.408203,0.0041 0.4522,0.0196 0.623175,0.239094 0.546875,0.683594 -0.105,0.6062 -0.227664,1.210825 -0.343164,1.815625 -0.0798,0.4172 -0.160726,0.834685 -0.244726,1.271485 0.4683,-1e-6 0.916452,0.0015 1.364452,-0.0055 0.0364,-7e-4 0.09477,-0.05851 0.105274,-0.0998 0.0399,-0.1554 0.06424,-0.316215 0.09434,-0.474414 0.1722,-0.8988 0.355863,-1.796561 0.514063,-2.697461 0.139299,-0.7952 -0.188902,-1.300425 -0.966602,-1.465625 -0.3682,-0.0784 -0.752664,-0.08847 -1.130664,-0.105274 -0.3738,-0.0168 -0.749,-0.0027 -1.1375,-0.0027 0.1141,-0.5915 0.294722,-1.516834 0.407422,-2.102734 H 14.592059 Z M 8.218227,13.04375 c -0.0441,0 -0.089119,0.0067 -0.1367191,0.01094 C 7.6538079,15.25549 7.0887,17.795768 6.661,19.997268 h 1.4410158 c 0.1085,-0.553 0.3565737,-1.437286 0.4552737,-1.975586 0.0189,-0.1036 0.059927,-0.129216 0.1572263,-0.128516 0.4732,0.0021 0.9473408,0.0128 1.4191412,-0.0082 0.2975,-0.0133 0.598204,-0.05235 0.887304,-0.123047 1.0829,-0.2646 2.179417,-1.420431 2.057617,-3.057031 -0.0623,-0.8393 -0.537217,-1.358394 -1.357617,-1.558594 -0.2499,-0.0616 -0.511459,-0.09494 -0.768359,-0.09844 -0.9114,-0.0112 -1.822975,-0.0041 -2.734375,-0.0041 z m 11.872656,0 c -0.0336,0 -0.06671,0.0054 -0.108008,0.0096 C 19.555175,15.251322 18.9894,17.7964 18.561,20 h 1.439649 c 0.1078,-0.5488 0.356606,-1.433884 0.453906,-1.971484 0.021,-0.1127 0.0673,-0.136719 0.170898,-0.136719 0.4844,0.0028 0.969621,0.01063 1.453321,-0.0055 0.6398,-0.0217 1.243003,-0.166021 1.758203,-0.578321 0.7952,-0.6356 1.162339,-1.473577 1.152539,-2.475976 -0.0077,-0.853301 -0.499439,-1.46754 -1.327539,-1.67754 -0.2548,-0.0644 -0.522266,-0.101773 -0.784766,-0.105273 -0.9282,-0.0126 -1.857428,-0.0055 -2.786328,-0.0055 z M 9.32975,14.054101 c 0.5446,0.0322 1.08208,0.03181 1.60918,0.103907 0.4613,0.0637 0.656709,0.33087 0.637109,0.79707 -0.0126,0.2842 -0.06379,0.571922 -0.142187,0.844922 -0.1743,0.6076 -0.604833,0.945284 -1.223633,1.008984 -0.4619999,0.0476 -0.9303111,0.04192 -1.4287111,0.06152 0.1855,-0.9534 0.3634421,-1.865806 0.5482421,-2.816406 z m 11.9,0.0014 c 0.5432,0.0315 1.080712,0.02974 1.607812,0.10254 0.4627,0.063 0.659477,0.327435 0.638477,0.794335 -0.0133,0.294702 -0.06706,0.594935 -0.151757,0.877735 -0.1778,0.5908 -0.607929,0.917306 -1.211329,0.978906 -0.462,0.0476 -0.928178,0.04192 -1.430078,0.06152 0.1855,-0.9534 0.362075,-1.865139 0.546875,-2.815039 z"
           id="path5662" />
        <path
           inkscape:connector-curvature="0"
           style="opacity:0.1;fill:#ffffff"
           d="M 3.4003906,2 C 2.6247906,2 2,2.6247906 2,3.4003906 v 1 C 2,3.6247906 2.6247906,3 3.4003906,3 H 28.599609 C 29.375209,3 30,3.6247906 30,4.4003906 v -1 C 30,2.6247906 29.375209,2 28.599609,2 Z"
           id="path5664" />
      </g>
    </g>
  </g>
</svg>
