<?xml version="1.0" encoding="UTF-8" standalone="no"?>
<svg
   xmlns:sketch="http://www.bohemiancoding.com/sketch/ns"
   xmlns:dc="http://purl.org/dc/elements/1.1/"
   xmlns:cc="http://creativecommons.org/ns#"
   xmlns:rdf="http://www.w3.org/1999/02/22-rdf-syntax-ns#"
   xmlns:svg="http://www.w3.org/2000/svg"
   xmlns="http://www.w3.org/2000/svg"
   xmlns:sodipodi="http://sodipodi.sourceforge.net/DTD/sodipodi-0.dtd"
   xmlns:inkscape="http://www.inkscape.org/namespaces/inkscape"
   id="svg4525"
   viewBox="0 0 6.5295134 6.996"
   width="56"
   height="60"
   version="1.1"
   sodipodi:docname="logo-jquery.svg"
   inkscape:export-filename="/home/www/neocarvajal.github.io/assets/images/logo-javascript.svg.png"
   inkscape:export-xdpi="96"
   inkscape:export-ydpi="96"
   inkscape:version="0.92.4 5da689c313, 2019-01-14">
  <metadata
     id="metadata991">
    <rdf:RDF>
      <cc:Work
         rdf:about="">
        <dc:format>image/svg+xml</dc:format>
        <dc:type
           rdf:resource="http://purl.org/dc/dcmitype/StillImage" />
        <dc:title></dc:title>
      </cc:Work>
    </rdf:RDF>
  </metadata>
  <defs
     id="defs989" />
  <sodipodi:namedview
     pagecolor="#ffffff"
     bordercolor="#666666"
     borderopacity="1"
     objecttolerance="10"
     gridtolerance="10"
     guidetolerance="10"
     inkscape:pageopacity="0"
     inkscape:pageshadow="2"
     inkscape:window-width="1440"
     inkscape:window-height="830"
     id="namedview987"
     showgrid="false"
     inkscape:zoom="7.2731219"
     inkscape:cx="53.919263"
     inkscape:cy="22.025174"
     inkscape:window-x="0"
     inkscape:window-y="34"
     inkscape:window-maximized="1"
     inkscape:current-layer="g5679" />
  <style
     id="style979">.st0{fill:#d4b830}.st1,.st2{opacity:.986;fill:#ebebeb;fill-opacity:0;enable-background:new}.st2{fill-opacity:.9216}.st3{fill:#fdd83c}</style>
  <style
     id="style4914">.st0{enable-background:new}.st1{opacity:.783}.st2{opacity:.576;enable-background:new}.st3{fill:none}.st4,.st5{opacity:.67;fill:url(#SVGID_1_);enable-background:new}.st5{opacity:.505;fill:url(#SVGID_2_)}.st6{fill:url(#SVGID_3_)}.st7,.st8{enable-background:new}.st7{fill:url(#SVGID_4_);opacity:.217}.st8{opacity:.276;filter:url(#l)}.st9{fill:url(#SVGID_5_)}.st10,.st11{enable-background:new}.st10{fill:url(#SVGID_6_);opacity:.453}.st11{opacity:.512;filter:url(#o)}.st12{fill:url(#SVGID_7_)}.st13,.st14{enable-background:new}.st13{fill:url(#SVGID_8_);opacity:.286}.st14{opacity:.621;filter:url(#r)}.st15{fill:url(#SVGID_9_)}.st16{filter:url(#t)}.st17{fill:url(#SVGID_10_)}.st18{opacity:.286;fill:url(#SVGID_11_);enable-background:new}.st19{fill:url(#SVGID_12_)}.st20{fill:url(#SVGID_13_)}.st21{fill:url(#SVGID_14_)}.st22{opacity:.286;fill:url(#SVGID_15_);enable-background:new}.st23{fill:url(#SVGID_16_)}.st24{opacity:.616;filter:url(#w);enable-background:new}.st25{fill:url(#SVGID_17_)}.st26{fill:none;stroke:url(#SVGID_18_);stroke-width:1.004}.st27{opacity:.325;filter:url(#A);enable-background:new}.st28{fill:url(#SVGID_19_)}.st29{fill:url(#SVGID_20_)}.st30{opacity:.478;filter:url(#D);enable-background:new}.st31{fill:url(#SVGID_21_)}.st32{opacity:.586;fill:#fff}.st32,.st33,.st34{enable-background:new}.st33{fill:url(#SVGID_22_);opacity:.251}.st34{opacity:.363;filter:url(#F)}.st35{fill:url(#SVGID_23_)}</style>
  <style
     id="style5276">.st0{display:none}.st1{display:inline}.st2{fill:#fba919}.st3{fill:#e78724}.st4{fill:#87ccee}.st5{fill:#fdc168}.st6{fill:#fff}.st7{fill:#c9c9c9}.st8{fill:#463014}</style>
  <g
     id="g5536"
     transform="translate(0.20280316,1.5097568)">
    <g
       id="g5679"
       transform="matrix(0.1166,0,0,0.1166,-5.6517503,-0.17812309)">
      <g
         sketch:type="MSPage"
         id="g5848"
         transform="matrix(0.42179836,0,0,0.42179836,46.893099,12.279894)"
         style="fill:none;fill-rule:evenodd;stroke:none;stroke-width:1">
        <g
           sketch:type="MSLayerGroup"
           id="logo-jquery">
          <g
             sketch:type="MSShapeGroup"
             id="Page-1">
            <g
               id="JQuery_logo">
              <path
                 id="Shape"
                 d="m 56.445378,11.639748 2.52e-4,-0.0013 -0.845042,2.994958 0.84479,-2.993697 v 0 0 z"
                 inkscape:connector-curvature="0"
                 style="fill:#131b28" />
              <path
                 d="m 60.791596,18.158134 -0.93126,-0.022 z"
                 id="path5749"
                 inkscape:connector-curvature="0"
                 style="fill:#131b28" />
              <path
                 d="m 60.552101,22.614202 h 10e-4 l -5.579243,0.08 5.578235,-0.08 v 0 0 z"
                 id="path5751"
                 inkscape:connector-curvature="0"
                 style="fill:#131b28" />
              <path
                 d="m 61.721848,18.163681 -0.931512,-0.022 z"
                 id="path5753"
                 inkscape:connector-curvature="0"
                 style="fill:#131b28" />
              <path
                 id="path5755"
                 d="m 61.041176,22.234034 0.971849,-3.706387 -0.971849,3.707143 z"
                 inkscape:connector-curvature="0"
                 style="fill:#131b28" />
              <path
                 id="path5757"
                 d="M 81.582101,5.1655462 79.771765,13.676471 Z"
                 inkscape:connector-curvature="0"
                 style="fill:#131b28" />
              <path
                 id="path5759"
                 d="M 76.928572,5.1655462 75.554118,11.523529 76.928572,5.165042 Z"
                 inkscape:connector-curvature="0"
                 style="fill:#131b28" />
              <path
                 id="path5761"
                 d="m 81.272269,4.782605 h -3.87126 c -0.214791,0 -0.427816,0.172437 -0.473698,0.3821849 l -1.374454,6.3584871 -1.374453,6.35874 c -0.04538,0.209748 -0.258404,0.38168 -0.473194,0.38168 h -2.348824 -0.39126 c -2.710841,0 -2.397479,-1.875126 -1.842101,-4.443781 0.0053,-0.02597 0.01109,-0.05118 0.01639,-0.07765 l 0.06076,-0.323698 c 0.004,-0.02092 0.0081,-0.04185 0.0116,-0.06101 l 0.123782,-0.659244 0.132353,-0.706638 c 0.04034,-0.213026 0.101344,-0.52437 0.141681,-0.72 L 70.234285,8.2189916 70.859496,5.1663025 C 70.902857,4.9557983 70.76168,4.7828571 70.546891,4.7828571 h -3.973613 c -0.214791,0 -0.427312,0.1729412 -0.471429,0.3829412 l -0.85437,4.0535295 -0.85437,4.0530252 c -7.56e-4,0.0018 -10e-4,0.0043 -0.0013,0.0061 l -0.07941,0.376639 c -0.984202,4.492941 -0.723278,8.777395 4.625294,8.911513 0.08748,0.0025 0.155042,0.0033 0.155042,0.0033 h 8.395463 c 0.215041,0 0.42731,-0.172689 0.472436,-0.382941 L 79.77126,13.676723 81.581597,5.1657983 C 81.62647,4.955042 81.487059,4.7828571 81.272269,4.782605 Z"
                 inkscape:connector-curvature="0"
                 style="fill:#131b28" />
              <path
                 d="m 96.716218,18.307815 c 0.215042,0 0.355462,0.172437 0.312606,0.382941 l -0.376135,1.837311"
                 id="path5763"
                 inkscape:connector-curvature="0"
                 style="fill:#131b28" />
              <path
                 d="m 96.277311,22.366134 0.37563,-1.838319 -0.376134,1.838824 c 0,-5.05e-4 5.04e-4,-5.05e-4 5.04e-4,-5.05e-4 z"
                 id="path5765"
                 inkscape:connector-curvature="0"
                 style="fill:#131b28" />
              <path
                 d="m 95.805882,22.753782 c 5.05e-4,0 0.0013,-0.0014 0.0018,-0.0014 -1.139496,0.02571 -4.563025,0.1 -7.136218,0.1 3.131596,0 7.134202,-0.09786 7.134453,-0.09857 v 0 0 z"
                 id="path5767"
                 inkscape:connector-curvature="0"
                 style="fill:#131b28" />
              <path
                 id="path5769"
                 d="m 86.362185,15.941345 c -0.0033,-0.201177 0.225882,-0.547816 0.440924,-0.547816 l -0.483529,-0.0081 c -0.217815,2.191261 0.0426,0.555883 0.0426,0.555883 v 0 0 z"
                 inkscape:connector-curvature="0"
                 style="fill:#131b28" />
              <path
                 d="m 89.049748,22.786639 c -0.03311,0 -0.06689,0 -0.1,0.002 0.03311,-0.002 0.06689,-0.002 0.1,-0.002 z"
                 id="path5771"
                 inkscape:connector-curvature="0"
                 style="fill:#131b28" />
              <path
                 d="m 96.716218,18.307815 c 0.215042,0 0.355462,0.172437 0.312606,0.382941 l -0.376135,1.837311 -0.06126,0.299496"
                 id="path5773"
                 inkscape:connector-curvature="0"
                 style="fill:#131b28" />
              <path
                 d="m 90.903513,22.782353 h -0.062 z"
                 id="path5775"
                 inkscape:connector-curvature="0"
                 style="fill:#131b28" />
              <path
                 d="m 89.951764,22.785378 h -0.1 z"
                 id="path5777"
                 inkscape:connector-curvature="0"
                 style="fill:#131b28" />
              <path
                 d="m 89.625799,22.786134 c -0.03407,0 -0.06704,0 -0.100001,0.002 0.03297,-0.002 0.06593,-0.002 0.100001,-0.002 z"
                 id="path5779"
                 inkscape:connector-curvature="0"
                 style="fill:#131b28" />
              <path
                 d="m 89.341933,22.786639 h -0.1 z"
                 id="path5781"
                 inkscape:connector-curvature="0"
                 style="fill:#131b28" />
              <path
                 d="m 89.85126,22.785378 c -0.07865,0 -0.157058,0.002 -0.234454,0.002 0.0774,0 0.156051,-0.002 0.234454,-0.002 z"
                 id="path5783"
                 inkscape:connector-curvature="0"
                 style="fill:#131b28" />
              <path
                 d="m 90.842017,22.782353 c -0.313109,0.005 -0.625715,0.01 -0.934034,0.013 0.308067,-0.002 0.621177,-0.008 0.934034,-0.013 z"
                 id="path5785"
                 inkscape:connector-curvature="0"
                 style="fill:#131b28" />
              <path
                 d="m 95.808403,22.752101 v 0 c -0.834706,0.02269 -2.896386,0.07395 -4.952772,0.1 2.055377,-0.02437 4.117562,-0.07731 4.952772,-0.1 z"
                 id="path5787"
                 inkscape:connector-curvature="0"
                 style="fill:#131b28" />
              <path
                 d="m 96.277311,22.367143 0.314622,-1.539328 -0.315126,1.540336 c 0,-5.04e-4 5.04e-4,-5.04e-4 5.04e-4,-0.001 v 0 0 z"
                 id="path5789"
                 inkscape:connector-curvature="0"
                 style="fill:#131b28" />
              <path
                 d="M 89.52605,22.786639 H 89.321596 Z"
                 id="path5791"
                 inkscape:connector-curvature="0"
                 style="fill:#131b28" />
              <path
                 d="M 88.94874,22.787143 H 88.672437 Z"
                 id="path5793"
                 inkscape:connector-curvature="0"
                 style="fill:#131b28" />
              <path
                 d="M 89.241176,22.786639 H 89.023361 Z"
                 id="path5795"
                 inkscape:connector-curvature="0"
                 style="fill:#131b28" />
              <path
                 id="path5797"
                 d="m 32.611765,15.987479 0.60126,-2.665714 -0.687479,3.047142 -0.659748,3.103866 0.57832,-2.720924 c 0.04462,-0.210504 0.120252,-0.55437 0.167647,-0.76437 z"
                 inkscape:connector-curvature="0"
                 style="fill:#131b28" />
              <path
                 id="path5799"
                 d="m 39.809244,4.7377311 h -4.251429 c -0.215042,0 -0.42958,0.1716807 -0.477731,0.3809244 l -0.403109,1.7793277 -0.403109,1.7800841 c -0.0474,0.2092436 0.08949,0.3809243 0.304537,0.3809243 h 4.284454 c 0.21479,0 0.428319,-0.1716807 0.474454,-0.3816807 l 0.389496,-1.7793277 0.389496,-1.7780673 v -5.042e-4 c 0.04639,-0.2097478 -0.09177,-0.3816806 -0.307059,-0.3816806 z"
                 inkscape:connector-curvature="0"
                 style="fill:#131b28" />
              <path
                 id="path5801"
                 d="m 38.884034,10.656807 v -5.04e-4 l -1.246891,5.768571 z"
                 inkscape:connector-curvature="0"
                 style="fill:#131b28" />
              <path
                 d="m 26.533614,29.771886 c 0,0 2.143109,0.0982 3.505462,0.0982 -1.034874,0 -2.744118,-0.06757 -3.507227,-0.1 7.56e-4,0 0.0013,0.0018 0.0018,0.0018 v 0 0 z"
                 id="path5803"
                 inkscape:connector-curvature="0"
                 style="fill:#131b28" />
              <path
                 id="path5805"
                 d="m 33.814286,10.65605 -0.602017,2.665715 z"
                 inkscape:connector-curvature="0"
                 style="fill:#131b28" />
              <path
                 id="path5807"
                 d="m 38.576471,10.274622 h -4.284958 c -0.21479,0 -0.42958,0.171681 -0.476975,0.381681 l -0.602017,2.665714 -0.601261,2.665714 c -0.04739,0.209748 -0.123025,0.553866 -0.167647,0.764118 l -0.578319,2.721176 -0.577815,2.720925 c -0.04487,0.209747 -0.137143,0.549075 -0.206219,0.752521 0,0 -0.80042,2.381848 -2.146134,2.354873 -0.05723,-0.0013 -0.112941,-0.0018 -0.168151,-0.0033 -0.651933,-0.01235 -1.164454,-0.02143 -1.164454,-0.02143 h -10e-4 c -0.214538,-0.0033 -0.430336,0.164117 -0.480252,0.372857 l -0.444454,1.868067 -0.443698,1.867059 c -0.04992,0.208739 0.08496,0.381176 0.298488,0.384706 0.763361,0.0091 2.472353,0.02823 3.507227,0.02823 3.361512,0 5.133529,-1.862521 6.269495,-7.221681 l 1.329328,-6.151008 1.246891,-5.768824 c 0.04538,-0.209495 -0.09353,-0.381428 -0.308067,-0.381428 v 0 0 z"
                 inkscape:connector-curvature="0"
                 style="fill:#131b28" />
              <path
                 id="path5809"
                 d="m 99.446218,22.569328 c -0.214789,0 -0.354201,-0.172437 -0.309075,-0.383194 L 102.3605,7.0878151"
                 inkscape:connector-curvature="0"
                 style="fill:#131b28" />
              <path
                 id="path5811"
                 d="m 103.92605,22.185882 1.30361,-6.444201 z"
                 inkscape:connector-curvature="0"
                 style="fill:#131b28" />
              <path
                 id="path5813"
                 d="m 99.184033,22.377983 c -0.02622,-0.105126 -0.01084,-0.362773 0.03504,-0.573529 l 1.529497,-7.166723 -1.611682,7.548908 c -0.04513,0.210504 0.09429,0.382941 0.309075,0.382941 h 0.391513 C 99.622185,22.569328 99.21,22.483361 99.184033,22.377983 Z"
                 inkscape:connector-curvature="0"
                 style="fill:#131b28" />
              <path
                 id="path5815"
                 d="m 103.67143,22.483361 c -0.11723,0.0474 -0.38899,0.08622 -0.60403,0.08622 h 0.39151 c 0.21479,0 0.4258,-0.172437 0.46815,-0.383445 l 0.0777,-0.382942 c -0.0426,0.210252 -0.21605,0.632521 -0.33328,0.680168 v 0 0 z"
                 inkscape:connector-curvature="0"
                 style="fill:#131b28" />
              <path
                 id="path5817"
                 d="m 104.57899,18.963781 0.5753,-2.844201 c -2.6e-4,0.0018 -5.1e-4,0.0043 -0.001,0.0055 l -0.57429,2.838655 v 0 0 z"
                 inkscape:connector-curvature="0"
                 style="fill:#131b28" />
              <path
                 d="m 117.29748,8.0994958 0.17748,0.7336135 c 0.0489,0.21 -0.0867,0.3804201 -0.30126,0.3809243"
                 id="path5819"
                 inkscape:connector-curvature="0"
                 style="fill:#131b28" />
              <path
                 id="path5821"
                 d="m 104.0042,21.803193 0.57378,-2.839159 z"
                 inkscape:connector-curvature="0"
                 style="fill:#131b28" />
              <path
                 d="m 117.12101,7.3479832 0.17571,0.7515126 z"
                 id="path5823"
                 inkscape:connector-curvature="0"
                 style="fill:#131b28" />
              <path
                 id="path5825"
                 d="m 105.15378,16.119832 c 0.0426,-0.210504 0.11345,-0.551597 0.15807,-0.760084 l 0.61462,-2.879244 -0.69605,3.261429 -0.0766,0.377899 v 0 0 z"
                 inkscape:connector-curvature="0"
                 style="fill:#131b28" />
              <path
                 id="path5827"
                 d="m 102.41344,6.8407563 c -0.0428,0.2031933 -0.0976,0.4598319 -0.13386,0.6297479 l -1.52975,7.1672268 1.61168,-7.5494117 0.0519,-0.247563 v 0 0 z"
                 inkscape:connector-curvature="0"
                 style="fill:#131b28" />
              <path
                 id="path5829"
                 d="M 117.47395,8.8331093 117.29622,8.0994958 117.1205,7.3479832 117.0315,6.967563 c -0.3479,-1.3522689 -1.36966,-2.132521 -3.5879,-2.132521 l -3.45378,-0.00378 -3.18075,-0.00378 H 106.53605 103.23 c -0.21479,0 -0.42731,0.1716807 -0.47168,0.3821848 h -2.5e-4 L 102.6,5.9573949 l -0.18681,0.8831093 -0.0519,0.2473109 -1.61168,7.5494119 -1.529748,7.166723 c -0.04563,0.210756 -0.06076,0.468403 -0.03479,0.573529 0.02572,0.105378 0.438151,0.191597 0.653193,0.191597 h 3.229165 c 0.21504,0 0.48731,-0.03882 0.60403,-0.08622 0.11748,-0.04739 0.29042,-0.469664 0.33328,-0.680168 l 0.57378,-2.83916 0.57454,-2.838655 c 2.5e-4,-0.0013 5e-4,-0.0038 0.001,-0.0055 l 0.0766,-0.377899 0.69631,-3.261429 0.61462,-2.8805042 c 0.0456,-0.2092437 0.25739,-0.3804201 0.47193,-0.3809243 l 10.15966,-0.00504 c 0.21429,0 0.34992,-0.1706722 0.30076,-0.3804201 v 0 0 z"
                 inkscape:connector-curvature="0"
                 style="fill:#131b28" />
              <path
                 id="path5831"
                 d="m 130.55294,2.1995798 c -0.21529,0.00151 -0.56697,0.00277 -0.78227,0.00277 h -3.25159 c -0.2153,0 -0.49059,0.1452101 -0.61185,0.3226891 l -7.19068,10.5345381 c -0.12126,0.177983 -0.25991,0.151512 -0.30781,-0.05773 l -0.52916,-2.321093 c -0.0474,-0.21 -0.26294,-0.380924 -0.47798,-0.380924 h -4.62278 c -0.21529,0 -0.34235,0.168655 -0.28361,0.375378 l 2.07126,7.256471 c 0.059,0.206722 0.0635,0.546554 0.0103,0.75479 l -0.90303,3.512016 c -0.0534,0.208488 0.0787,0.37916 0.29395,0.37916 h 4.56882 c 0.21479,0 0.43463,-0.170672 0.48782,-0.37916 l 0.90328,-3.512016 c 0.0532,-0.208236 0.20294,-0.51958 0.33227,-0.691261 L 131.9337,2.5013445 C 132.06353,2.3296639 131.99319,2.19 131.7784,2.1915126 l -1.22546,0.00807 v 0 0 z"
                 inkscape:connector-curvature="0"
                 style="fill:#131b28" />
              <path
                 id="path5833"
                 d="m 93.826891,11.287563 -2.52e-4,-0.0043 c -0.02672,0.233194 -0.242017,0.40437 -0.456807,0.40437 h -5.860841 c -0.202689,0 -0.305546,-0.137899 -0.275798,-0.307815 0.0018,-0.005 0.0025,-0.0093 0.0055,-0.01361 0,0 -0.002,5.04e-4 -0.004,0.0018 0.0015,-0.0068 0.0015,-0.01286 0.0035,-0.01966 0,0 0.01084,-0.04134 0.02647,-0.09983 0.559916,-1.4881508 1.699916,-2.4650416 3.842773,-2.4650416 2.412605,2.521e-4 2.883278,1.1790756 2.719412,2.5041176 v 0 0 z m -1.71958,-6.7648739 c -7.522689,0 -9.305546,4.5663025 -10.30563,9.1749579 -1.000084,4.697395 -0.913866,9.089496 6.870756,9.089496 h 0.276303 c 0.0247,-5.04e-4 0.04966,-5.04e-4 0.07437,-5.04e-4 h 0.218067 0.07967 0.204453 c 0.03025,-5.05e-4 0.0605,-5.05e-4 0.09101,-5.05e-4 0.0779,0 0.15605,-5.04e-4 0.234706,-5.04e-4 h 0.05521 c 0.308068,-5.04e-4 0.620673,-0.002 0.933782,-0.003 h 0.01563 c 2.056134,-0.0081 4.117814,-0.0237 4.953024,-0.03025 0.21353,-0.0033 0.422522,-0.175462 0.466639,-0.38395 l 0.315126,-1.540336 0.06101,-0.299748 0.376135,-1.837059 c 0.0431,-0.210783 -0.09757,-0.38322 -0.312614,-0.38322 h -6.998572 c -2.783445,0 -3.610084,-0.739664 -3.305545,-2.914286 H 97.59832 l -0.001,0.0013 c 0.003,0 0.0053,-0.0013 0.0078,-0.0013 0.177731,-0.0033 0.341849,-0.125546 0.407143,-0.288655 0.01235,-0.03151 0.02294,-0.06403 0.02697,-0.09782 l -0.0013,0.0013 C 99.699076,8.7428572 99.222857,4.5231933 92.106555,4.5231933 Z"
                 inkscape:connector-curvature="0"
                 style="fill:#131b28" />
              <path
                 id="path5835"
                 d="m 56.55126,11.263613 -0.105882,0.374874 c 0,0.0013 -2.52e-4,0.0013 -2.52e-4,0.0013 l -0.84479,2.993697 -0.844538,2.993194 C 54.697308,17.8334 54.47395,18.00256 54.258403,18.00256 h -4.471008 c -3.391513,0 -4.217395,-2.652353 -3.391513,-6.56521 0.825631,-4.0018488 2.444622,-6.4895799 5.782689,-6.7414286 4.561513,-0.3438656 5.474118,2.8643697 4.372689,6.5677306 v 0 0 z m 3.066303,6.50874 c 0,0 2.108067,-5.118403 2.586806,-8.0750421 C 62.857311,5.7395798 60.875799,0 53.222017,0 45.611597,0 42.307311,5.4799159 41.046303,11.437059 c -1.260757,6.000252 0.39126,11.262605 7.958067,11.219496 l 5.969496,-0.02219 5.579243,-0.02017 c 0.21479,-0.002 0.434622,-0.172437 0.489328,-0.379916 l 0.971848,-3.707143 c 0.0542,-0.207983 -0.07714,-0.37916 -0.291932,-0.38042 l -0.931512,-0.0053 -0.931261,-0.0055 c -0.182774,-0.0013 -0.287395,-0.119496 -0.265211,-0.276554 0.004,-0.02798 0.01034,-0.05723 0.02269,-0.08723 l 5.04e-4,2.52e-4 v 0 z"
                 inkscape:connector-curvature="0"
                 style="fill:#131b28" />
              <path
                 id="path5837"
                 d="m 97.290756,14.346555 c 0,0.14168 -0.114705,0.256638 -0.256639,0.256638 -0.141932,0 -0.25689,-0.11521 -0.25689,-0.256638 0,-0.141429 0.114958,-0.256135 0.25689,-0.256135 0.141934,0 0.256639,0.114706 0.256639,0.256135 z"
                 inkscape:connector-curvature="0"
                 style="fill:#131b28" />
              <path
                 id="path5839"
                 d="M 1.5073109,7.6913445 C -0.59394958,10.711513 -0.33226891,14.640756 1.2728572,17.85 c 0.038067,0.07689 0.078151,0.152521 0.1174789,0.228151 0.02521,0.0479 0.048908,0.09731 0.075126,0.144454 0.014874,0.02823 0.031513,0.05622 0.046891,0.08319 0.027227,0.05118 0.055462,0.09983 0.083697,0.149748 0.049916,0.08798 0.1008404,0.17521 0.1532773,0.262689 0.028992,0.0479 0.057479,0.09605 0.087479,0.14395 0.057731,0.09353 0.1172269,0.185798 0.1779832,0.278319 0.02521,0.03933 0.049916,0.07866 0.07563,0.116975 0.083697,0.12479 0.1691596,0.249328 0.2573949,0.371849 0.00227,0.0033 0.00479,0.0066 0.00731,0.0098 0.013866,0.01941 0.029244,0.03857 0.043361,0.05823 0.076387,0.105378 0.155042,0.209244 0.2347059,0.312101 0.029244,0.03731 0.05874,0.07513 0.088487,0.112437 0.071092,0.08924 0.1434454,0.177983 0.2168067,0.266722 0.027479,0.03303 0.05521,0.06656 0.082941,0.09908 0.098823,0.116219 0.1994117,0.231933 0.3022689,0.345126 0.00176,0.002 0.00429,0.0045 0.00605,0.0063 0.00429,0.005 0.00807,0.0078 0.011597,0.01286 0.1003362,0.109664 0.2031933,0.216554 0.3070589,0.323697 0.032269,0.03328 0.065294,0.06656 0.098571,0.09933 0.080672,0.08118 0.162605,0.161092 0.2452941,0.240504 0.033529,0.03202 0.066807,0.06479 0.1003361,0.09529 0.1104202,0.104118 0.2221009,0.206219 0.3360505,0.306051 0.00202,0.0018 0.00353,0.0033 0.00529,0.0043 0.019412,0.01714 0.039328,0.03353 0.058487,0.04991 0.1003361,0.08698 0.2024369,0.173194 0.3052941,0.257647 0.041849,0.03403 0.084202,0.06731 0.1263025,0.100841 0.08395,0.06731 0.1689076,0.133613 0.2546218,0.198907 0.045126,0.03454 0.090504,0.06882 0.1361345,0.103362 0.094538,0.06933 0.1895799,0.137899 0.2856302,0.204706 0.035042,0.02546 0.068824,0.04992 0.1038656,0.07386 0.00983,0.0068 0.018908,0.01387 0.02874,0.02042 0.091008,0.06277 0.1842857,0.123026 0.2773109,0.18353 0.040084,0.02647 0.079664,0.0542 0.12,0.07992 0.1426891,0.09025 0.2876471,0.179748 0.4341177,0.265966 0.03958,0.02294 0.079916,0.04513 0.12,0.06781 0.107647,0.06227 0.2160504,0.123025 0.3257142,0.183025 0.059496,0.03202 0.1205042,0.06202 0.1805043,0.09277 0.077647,0.04059 0.1542857,0.08168 0.2331933,0.121008 0.017899,0.0088 0.036555,0.0174 0.053949,0.02622 0.031765,0.01538 0.063782,0.03 0.095294,0.04613 0.1220168,0.05823 0.2452941,0.115714 0.3695799,0.171176 0.026471,0.01185 0.051933,0.02345 0.078151,0.03504 0.1424369,0.06227 0.2861344,0.122017 0.4310923,0.179244 0.03479,0.01437 0.069832,0.02748 0.1051261,0.04134 0.1341177,0.05168 0.2702521,0.102605 0.4068908,0.150756 0.017143,0.006 0.033781,0.01185 0.051176,0.01765 0.149748,0.05244 0.3012606,0.10084 0.4535295,0.148487 0.036302,0.01059 0.072857,0.02219 0.1096638,0.03277 0.155042,0.04689 0.3083194,0.102606 0.4684039,0.132101 10.162184,1.853194 13.114033,-6.106891 13.114033,-6.106891 -2.479664,3.229665 -6.880336,4.081765 -11.04958,3.13311 -0.157815,-0.0358 -0.311092,-0.08496 -0.465378,-0.130588 -0.03907,-0.0116 -0.07765,-0.02345 -0.115966,-0.03529 -0.150504,-0.04613 -0.299748,-0.09454 -0.447983,-0.145714 -0.02042,-0.0073 -0.04084,-0.01487 -0.06151,-0.02219 -0.132857,-0.04689 -0.264202,-0.09605 -0.395042,-0.14647 -0.03681,-0.01487 -0.07386,-0.02874 -0.110672,-0.04361 -0.143445,-0.05672 -0.285882,-0.115714 -0.426555,-0.177227 -0.02899,-0.01235 -0.05672,-0.02546 -0.08521,-0.03756 C 9.8818488,21.138403 9.7621009,21.083193 9.6431093,21.025966 9.6085715,21.00958 9.5742857,20.993193 9.5389916,20.97605 9.4454622,20.93042 9.3529412,20.882017 9.2606723,20.83437 9.1989076,20.801849 9.1361345,20.771092 9.074874,20.737059 8.9621849,20.676807 8.8515126,20.614034 8.7413446,20.55 8.7040336,20.529076 8.6662185,20.508907 8.6286555,20.487227 8.4821849,20.401008 8.337479,20.311765 8.1942857,20.221008 8.1547059,20.195798 8.1161345,20.168823 8.0770588,20.142857 7.9731933,20.075798 7.8698319,20.007731 7.7679832,19.937395 7.7342017,19.914706 7.7016806,19.89 7.6684033,19.867563 7.570084,19.798235 7.4727731,19.727647 7.3762185,19.656302 7.3323529,19.623781 7.2892437,19.590756 7.2466387,19.558235 7.1581513,19.49042 7.0701681,19.422353 6.9829412,19.352269 6.9436134,19.321008 6.9042857,19.289496 6.8654622,19.257983 6.7547899,19.166975 6.645126,19.07521 6.5369748,18.981176 c -0.011345,-0.0098 -0.023697,-0.01966 -0.03605,-0.03025 -0.1169747,-0.102605 -0.2316806,-0.207983 -0.3453781,-0.313865 -0.033025,-0.03151 -0.065042,-0.06202 -0.097311,-0.09353 -0.08395,-0.07992 -0.1668907,-0.160588 -0.2480673,-0.243277 -0.032521,-0.03252 -0.065294,-0.06454 -0.097311,-0.09706 -0.1033613,-0.105882 -0.204958,-0.213277 -0.3045378,-0.321933 -0.00504,-0.0053 -0.010084,-0.01034 -0.015126,-0.01588 C 5.2880672,17.75042 5.1852101,17.632689 5.0843697,17.51395 5.0571428,17.481176 5.0306722,17.449916 5.0034454,17.417899 4.9283193,17.327395 4.8539496,17.23563 4.7813445,17.143109 4.7541177,17.110084 4.7268908,17.075798 4.699916,17.041765 4.612437,16.928319 4.5269748,16.815126 4.4432773,16.700168 2.1284874,13.542857 1.2968067,9.1875631 3.1469748,5.6110084"
                 inkscape:connector-curvature="0"
                 style="fill:#0868ac" />
              <path
                 id="path5841"
                 d="M 8.029916,5.1468907 C 6.5102521,7.3336134 6.5926891,10.261008 7.7780673,12.573782 c 0.1989075,0.387731 0.4222689,0.763865 0.6721008,1.1221 0.2276471,0.326219 0.48,0.714454 0.7822689,0.976891 0.1096639,0.120756 0.2241176,0.238235 0.3410924,0.35395 0.029496,0.03025 0.059748,0.05899 0.089748,0.08874 0.1134454,0.110168 0.2289076,0.218572 0.3484036,0.323698 0.005,0.0038 0.0093,0.0086 0.01412,0.01235 0.0013,0.0013 0.0025,0.0018 0.0033,0.0033 0.1321,0.115714 0.268235,0.227143 0.40689,0.336555 0.03076,0.02345 0.06126,0.0479 0.09227,0.0721 0.138908,0.106387 0.280336,0.211009 0.425547,0.310841 0.0043,0.003 0.0078,0.0061 0.01235,0.0093 0.06403,0.04437 0.129327,0.08546 0.194117,0.128068 0.03126,0.02017 0.06076,0.04185 0.09202,0.06076 0.103613,0.06655 0.208739,0.131344 0.315378,0.193361 0.01513,0.0093 0.03,0.01714 0.04462,0.02597 0.09202,0.05294 0.185294,0.105126 0.278823,0.155798 0.03252,0.01815 0.0658,0.03454 0.09908,0.05168 0.06454,0.03378 0.129328,0.06832 0.195126,0.10084 0.0098,0.0048 0.01992,0.0091 0.0295,0.01336 0.133866,0.06605 0.268991,0.12958 0.406891,0.18958 0.0295,0.01311 0.06,0.02471 0.08975,0.03681 0.110168,0.04689 0.221596,0.09252 0.333529,0.135378 0.04739,0.0179 0.09529,0.03529 0.142689,0.05244 0.101597,0.03756 0.203445,0.0721 0.306303,0.106639 0.04639,0.01487 0.09202,0.03 0.138403,0.04437 0.146219,0.04538 0.29042,0.102605 0.442689,0.128068 7.846135,1.299832 9.657479,-4.741261 9.657479,-4.741261 -1.632857,2.351849 -4.794958,3.473698 -8.169328,2.597899 -0.15,-0.03933 -0.297731,-0.08244 -0.444453,-0.128571 -0.04487,-0.01361 -0.08899,-0.02824 -0.133614,-0.04311 -0.10437,-0.03378 -0.207983,-0.06958 -0.31084,-0.107143 -0.04714,-0.01714 -0.09429,-0.03454 -0.14042,-0.05244 -0.112689,-0.04311 -0.224118,-0.08798 -0.334538,-0.134874 -0.03025,-0.01286 -0.0605,-0.02471 -0.09,-0.03807 -0.138404,-0.06025 -0.27479,-0.123782 -0.409412,-0.190084 -0.06933,-0.03378 -0.137143,-0.06958 -0.20521,-0.104622 -0.03933,-0.02042 -0.07891,-0.04059 -0.118487,-0.06101 -0.08748,-0.04739 -0.174202,-0.09655 -0.259664,-0.14647 -0.02042,-0.0116 -0.0416,-0.02269 -0.06227,-0.03504 -0.106135,-0.06227 -0.210757,-0.126051 -0.314622,-0.192101 -0.03202,-0.02042 -0.06277,-0.04235 -0.09479,-0.06328 -0.06832,-0.04437 -0.136639,-0.08924 -0.203698,-0.134874 -0.144705,-0.09983 -0.285378,-0.204454 -0.424033,-0.310084 -0.03202,-0.02521 -0.06403,-0.04992 -0.09529,-0.07513 C 10.44479,12.480252 9.2740336,10.886723 8.7173949,9.0796638 8.1340336,7.2055462 8.259832,5.1017647 9.2705042,3.3945378"
                 inkscape:connector-curvature="0"
                 style="fill:#0868ac" />
              <path
                 id="path5843"
                 d="m 13.515882,3.2457983 c -0.895714,1.3182353 -0.983697,2.9556302 -0.362268,4.4117647 0.655462,1.5453782 1.998655,2.757983 3.56647,3.332773 0.06454,0.0242 0.129328,0.04563 0.194622,0.06782 0.02874,0.0088 0.05698,0.01866 0.08597,0.02698 0.09227,0.02899 0.184034,0.06277 0.279328,0.08067 4.332353,0.836975 5.507395,-2.223277 5.820252,-2.6735291 C 22.070924,9.9743697 20.341008,10.330084 18.218571,9.815042 18.050924,9.7742017 17.866639,9.7136975 17.705042,9.6564706 17.497815,9.5826051 17.293613,9.4984034 17.09521,9.4031093 16.718319,9.2221009 16.359076,9.0022689 16.02605,8.7506722 14.126723,7.3096638 12.946891,4.5605042 14.186219,2.3215966"
                 inkscape:connector-curvature="0"
                 style="fill:#0868ac" />
            </g>
          </g>
        </g>
      </g>
    </g>
  </g>
</svg>
