<?xml version="1.0" encoding="UTF-8" standalone="no"?>
<svg
   xmlns:dc="http://purl.org/dc/elements/1.1/"
   xmlns:cc="http://creativecommons.org/ns#"
   xmlns:rdf="http://www.w3.org/1999/02/22-rdf-syntax-ns#"
   xmlns:svg="http://www.w3.org/2000/svg"
   xmlns="http://www.w3.org/2000/svg"
   xmlns:sodipodi="http://sodipodi.sourceforge.net/DTD/sodipodi-0.dtd"
   xmlns:inkscape="http://www.inkscape.org/namespaces/inkscape"
   id="svg4525"
   viewBox="0 0 6.5295134 6.996"
   width="56"
   height="60"
   version="1.1"
   sodipodi:docname="logo-laravel.svg"
   inkscape:export-filename="/home/www/neocarvajal.github.io/assets/images/logo-javascript.svg.png"
   inkscape:export-xdpi="96"
   inkscape:export-ydpi="96"
   inkscape:version="0.92.4 5da689c313, 2019-01-14">
  <metadata
     id="metadata991">
    <rdf:RDF>
      <cc:Work
         rdf:about="">
        <dc:format>image/svg+xml</dc:format>
        <dc:type
           rdf:resource="http://purl.org/dc/dcmitype/StillImage" />
        <dc:title></dc:title>
      </cc:Work>
    </rdf:RDF>
  </metadata>
  <defs
     id="defs989" />
  <sodipodi:namedview
     pagecolor="#ffffff"
     bordercolor="#666666"
     borderopacity="1"
     objecttolerance="10"
     gridtolerance="10"
     guidetolerance="10"
     inkscape:pageopacity="0"
     inkscape:pageshadow="2"
     inkscape:window-width="1440"
     inkscape:window-height="830"
     id="namedview987"
     showgrid="false"
     inkscape:zoom="9.8007149"
     inkscape:cx="19.704099"
     inkscape:cy="29.910508"
     inkscape:window-x="0"
     inkscape:window-y="34"
     inkscape:window-maximized="1"
     inkscape:current-layer="svg4525" />
  <style
     id="style979">.st0{fill:#d4b830}.st1,.st2{opacity:.986;fill:#ebebeb;fill-opacity:0;enable-background:new}.st2{fill-opacity:.9216}.st3{fill:#fdd83c}</style>
  <path
     id="path4831"
     d="m 6.5254117,1.5823345 a 0.10638511,0.11072302 0 0 1 0.004,0.0286 v 1.50168 a 0.10520159,0.10949125 0 0 1 -0.0529,0.095 l -1.21101,0.72565 v 1.43831 c 0,0.0391 -0.02,0.0753 -0.0526,0.095 l -2.52786,1.5145401 c -0.006,0.003 -0.0121,0.006 -0.0184,0.008 -0.002,8.2e-4 -0.005,0.002 -0.007,0.003 a 0.1058591,0.11017557 0 0 1 -0.0539,0 c -0.003,-8.2e-4 -0.006,-0.002 -0.008,-0.004 -0.006,-0.002 -0.0118,-0.004 -0.0174,-0.007 l -2.52734,-1.5145401 a 0.10533309,0.10962811 0 0 1 -0.0528999975,-0.095 V 0.86655452 c 0,-0.01 9.999975e-4,-0.0194 0.003999997,-0.0287 7.9e-4,-0.003 0.003,-0.006 0.004,-0.009 0.002,-0.006 0.004,-0.0116 0.007,-0.017 0.002,-0.004 0.005,-0.006 0.007,-0.01 0.003,-0.004 0.006,-0.009 0.009,-0.0127 0.003,-0.003 0.007,-0.005 0.0104,-0.008 0.004,-0.003 0.007,-0.007 0.0116,-0.009 h 1.4e-4 l 1.26373,-0.75727 a 0.1054646,0.10976498 0 0 1 0.10521,0 l 1.26373,0.75727 h 2.6e-4 c 0.004,0.003 0.008,0.006 0.0116,0.009 0.003,0.003 0.007,0.005 0.0103,0.008 0.004,0.004 0.006,0.008 0.009,0.0129 0.002,0.003 0.005,0.006 0.007,0.01 0.003,0.005 0.005,0.0112 0.007,0.017 10e-4,0.003 0.003,0.006 0.004,0.009 a 0.10638511,0.11072302 0 0 1 0.004,0.0286 V 3.6804445 l 1.05307,-0.63108 v -1.43844 c 0,-0.01 10e-4,-0.0193 0.004,-0.0285 9.2e-4,-0.003 0.003,-0.006 0.004,-0.009 0.002,-0.006 0.004,-0.0116 0.007,-0.017 0.002,-0.004 0.005,-0.006 0.007,-0.01 0.003,-0.004 0.006,-0.009 0.009,-0.0127 0.003,-0.003 0.007,-0.005 0.0103,-0.008 0.004,-0.003 0.007,-0.007 0.0116,-0.009 h 1.4e-4 l 1.26387,-0.75726998 a 0.10533309,0.10962811 0 0 1 0.1052,0 l 1.26373,0.75726998 c 0.004,0.003 0.008,0.006 0.0118,0.009 0.003,0.003 0.007,0.005 0.0101,0.008 0.004,0.004 0.006,0.008 0.009,0.0129 0.002,0.003 0.005,0.006 0.007,0.01 0.003,0.005 0.005,0.0112 0.007,0.017 10e-4,0.003 0.003,0.006 0.004,0.009 z m -0.20699,1.46691 v -1.24875 l -0.44224,0.26497 -0.61096,0.36611 v 1.24875 l 1.05334,-0.63108 z m -1.26373,2.25894 v -1.24957 l -0.60096,0.35722 -1.71611,1.01936 v 1.26134 z m -4.84452999,-4.25209 v 4.25209 l 2.31679999,1.38821 v -1.26106 l -1.21035,-0.71293 -3.9e-4,-2.7e-4 -5.3e-4,-2.7e-4 c -0.004,-0.002 -0.007,-0.006 -0.0113,-0.009 -0.003,-0.003 -0.007,-0.005 -0.01,-0.008 l -2.6e-4,-4.1e-4 c -0.003,-0.003 -0.006,-0.008 -0.009,-0.0115 -0.003,-0.004 -0.006,-0.007 -0.008,-0.0107 l -1.3e-4,-4.1e-4 c -0.002,-0.004 -0.004,-0.009 -0.006,-0.0137 -0.002,-0.004 -0.004,-0.008 -0.005,-0.0123 v -1.5e-4 c -10e-4,-0.005 -0.002,-0.0107 -0.002,-0.016 -5.2e-4,-0.004 -0.002,-0.008 -0.002,-0.0123 v -2.94024 l -0.61081999,-0.36625 -0.44224,-0.2647 z m 1.15852999,-0.82036998 -1.05293999,0.63081 1.05267999,0.63080998 1.0528,-0.63094998 -1.0528,-0.63067 z m 0.54757,3.93675998 0.61083,-0.36597 v -2.75042 l -0.44224,0.26497 -0.61096,0.36611 v 2.75042 z m 3.24376,-3.19234998 -1.0528,0.63079998 1.0528,0.63081 1.05268,-0.63094 z m -0.10533,1.45143998 -0.61096,-0.36611 -0.44224,-0.26497 v 1.24875 l 0.61083,0.36597 0.44237,0.26511 z m -2.42253,2.81406 1.54423,-0.91753 0.77191,-0.4585 -1.05201,-0.63039 -1.21127,0.72579 -1.10396,0.66146 z"
     inkscape:connector-curvature="0"
     style="fill:#ff2d20;stroke-width:0.13415624" />
</svg>
