<?xml version="1.0" encoding="UTF-8" standalone="no"?>
<svg
   xmlns:dc="http://purl.org/dc/elements/1.1/"
   xmlns:cc="http://creativecommons.org/ns#"
   xmlns:rdf="http://www.w3.org/1999/02/22-rdf-syntax-ns#"
   xmlns:svg="http://www.w3.org/2000/svg"
   xmlns="http://www.w3.org/2000/svg"
   xmlns:sodipodi="http://sodipodi.sourceforge.net/DTD/sodipodi-0.dtd"
   xmlns:inkscape="http://www.inkscape.org/namespaces/inkscape"
   id="svg4525"
   viewBox="0 0 6.5295134 6.996"
   width="56"
   height="60"
   version="1.1"
   sodipodi:docname="logo-git.svg"
   inkscape:export-filename="/home/www/neocarvajal.github.io/assets/images/logo-javascript.svg.png"
   inkscape:export-xdpi="96"
   inkscape:export-ydpi="96"
   inkscape:version="0.92.4 5da689c313, 2019-01-14">
  <metadata
     id="metadata991">
    <rdf:RDF>
      <cc:Work
         rdf:about="">
        <dc:format>image/svg+xml</dc:format>
        <dc:type
           rdf:resource="http://purl.org/dc/dcmitype/StillImage" />
        <dc:title></dc:title>
      </cc:Work>
    </rdf:RDF>
  </metadata>
  <defs
     id="defs989" />
  <sodipodi:namedview
     pagecolor="#ffffff"
     bordercolor="#666666"
     borderopacity="1"
     objecttolerance="10"
     gridtolerance="10"
     guidetolerance="10"
     inkscape:pageopacity="0"
     inkscape:pageshadow="2"
     inkscape:window-width="1440"
     inkscape:window-height="830"
     id="namedview987"
     showgrid="false"
     inkscape:zoom="3.7095375"
     inkscape:cx="-14.45943"
     inkscape:cy="12.32229"
     inkscape:window-x="0"
     inkscape:window-y="34"
     inkscape:window-maximized="1"
     inkscape:current-layer="g5536" />
  <style
     id="style979">.st0{fill:#d4b830}.st1,.st2{opacity:.986;fill:#ebebeb;fill-opacity:0;enable-background:new}.st2{fill-opacity:.9216}.st3{fill:#fdd83c}</style>
  <style
     id="style4914">.st0{enable-background:new}.st1{opacity:.783}.st2{opacity:.576;enable-background:new}.st3{fill:none}.st4,.st5{opacity:.67;fill:url(#SVGID_1_);enable-background:new}.st5{opacity:.505;fill:url(#SVGID_2_)}.st6{fill:url(#SVGID_3_)}.st7,.st8{enable-background:new}.st7{fill:url(#SVGID_4_);opacity:.217}.st8{opacity:.276;filter:url(#l)}.st9{fill:url(#SVGID_5_)}.st10,.st11{enable-background:new}.st10{fill:url(#SVGID_6_);opacity:.453}.st11{opacity:.512;filter:url(#o)}.st12{fill:url(#SVGID_7_)}.st13,.st14{enable-background:new}.st13{fill:url(#SVGID_8_);opacity:.286}.st14{opacity:.621;filter:url(#r)}.st15{fill:url(#SVGID_9_)}.st16{filter:url(#t)}.st17{fill:url(#SVGID_10_)}.st18{opacity:.286;fill:url(#SVGID_11_);enable-background:new}.st19{fill:url(#SVGID_12_)}.st20{fill:url(#SVGID_13_)}.st21{fill:url(#SVGID_14_)}.st22{opacity:.286;fill:url(#SVGID_15_);enable-background:new}.st23{fill:url(#SVGID_16_)}.st24{opacity:.616;filter:url(#w);enable-background:new}.st25{fill:url(#SVGID_17_)}.st26{fill:none;stroke:url(#SVGID_18_);stroke-width:1.004}.st27{opacity:.325;filter:url(#A);enable-background:new}.st28{fill:url(#SVGID_19_)}.st29{fill:url(#SVGID_20_)}.st30{opacity:.478;filter:url(#D);enable-background:new}.st31{fill:url(#SVGID_21_)}.st32{opacity:.586;fill:#fff}.st32,.st33,.st34{enable-background:new}.st33{fill:url(#SVGID_22_);opacity:.251}.st34{opacity:.363;filter:url(#F)}.st35{fill:url(#SVGID_23_)}</style>
  <style
     id="style5276">.st0{display:none}.st1{display:inline}.st2{fill:#fba919}.st3{fill:#e78724}.st4{fill:#87ccee}.st5{fill:#fdc168}.st6{fill:#fff}.st7{fill:#c9c9c9}.st8{fill:#463014}</style>
  <g
     id="g5536"
     transform="translate(0.20280316,1.5097568)">
    <path
       id="path5626"
       d="M 6.2058697,1.6991308 3.3529381,-1.1343705 c -0.1641995,-0.1631921 -0.4306741,-0.1631921 -0.5950786,0 l -0.5924238,0.58842088 0.7515185,0.74644083 c 0.174639,-0.0586134 0.3749043,-0.019293 0.514115,0.11897737 0.1398756,0.13915902 0.179184,0.33976951 0.1187419,0.51378726 L 4.2740683,1.5526471 c 0.1752264,-0.059959 0.3774067,-0.021181 0.5173573,0.1180635 0.1955958,0.194197 0.1955958,0.5089431 0,0.7032666 -0.1956454,0.1943509 -0.5125325,0.1943509 -0.7082805,0 C 3.9360222,2.2276969 3.899674,2.0130899 3.9741554,1.8330658 L 3.2987256,1.1621996 3.2986581,2.9276414 a 0.50589666,0.50247854 0 0 1 0.1324211,0.094057 c 0.1955955,0.1941967 0.1955955,0.5089676 0,0.7034426 -0.1956454,0.1942491 -0.512685,0.1942491 -0.7080505,0 -0.1955956,-0.194475 -0.1955956,-0.5092209 0,-0.7034183 A 0.50165957,0.49827008 0 0 1 2.8869207,2.9131929 V 1.1312938 A 0.49461479,0.4912729 0 0 1 2.7230287,1.0227625 C 2.5748334,0.87576948 2.5392,0.6597968 2.6151363,0.4790601 L 1.8743023,-0.25683551 -0.0819001,1.6860232 c -0.16437692,0.1633433 -0.16437692,0.4280447 0,0.5912616 l 2.8529815,2.8335538 c 0.1642495,0.1632165 0.4306765,0.1632165 0.595131,0 L 6.2058445,2.2904422 c 0.1643271,-0.1632665 0.1643271,-0.4281193 0,-0.5913114"
       inkscape:connector-curvature="0"
       style="fill:#de4c36;stroke-width:0.02543817" />
  </g>
</svg>
