<?xml version="1.0" encoding="UTF-8" standalone="no"?>
<svg
   xmlns:dc="http://purl.org/dc/elements/1.1/"
   xmlns:cc="http://creativecommons.org/ns#"
   xmlns:rdf="http://www.w3.org/1999/02/22-rdf-syntax-ns#"
   xmlns:svg="http://www.w3.org/2000/svg"
   xmlns="http://www.w3.org/2000/svg"
   xmlns:sodipodi="http://sodipodi.sourceforge.net/DTD/sodipodi-0.dtd"
   xmlns:inkscape="http://www.inkscape.org/namespaces/inkscape"
   id="svg4525"
   viewBox="0 0 6.8793088 6.996"
   width="59"
   height="60"
   version="1.1"
   sodipodi:docname="logo-postgresql.svg"
   inkscape:export-filename="/home/www/neocarvajal.github.io/assets/images/logo-inkscape.png"
   inkscape:export-xdpi="96"
   inkscape:export-ydpi="96"
   inkscape:version="0.92.4 5da689c313, 2019-01-14">
  <metadata
     id="metadata991">
    <rdf:RDF>
      <cc:Work
         rdf:about="">
        <dc:format>image/svg+xml</dc:format>
        <dc:type
           rdf:resource="http://purl.org/dc/dcmitype/StillImage" />
        <dc:title></dc:title>
      </cc:Work>
    </rdf:RDF>
  </metadata>
  <defs
     id="defs989">
    <linearGradient
       id="a"
       y2="148.33623"
       x2="151.13583"
       y1="22.897127"
       x1="24.714632"
       gradientTransform="scale(0.99888681,1.0011144)"
       gradientUnits="userSpaceOnUse">
      <stop
         id="stop5964"
         offset="0%"
         stop-color="#387EB8" />
      <stop
         id="stop5966"
         offset="100%"
         stop-color="#366994" />
    </linearGradient>
    <linearGradient
       id="b"
       y2="231.90517"
       x2="238.2592"
       y1="103.26573"
       x1="102.48345"
       gradientTransform="scale(0.99888668,1.0011146)"
       gradientUnits="userSpaceOnUse">
      <stop
         id="stop5969"
         offset="0%"
         stop-color="#FFE052" />
      <stop
         id="stop5971"
         offset="100%"
         stop-color="#FFC331" />
    </linearGradient>
    <style
       id="style6574">.cls-1{fill:#fff}.cls-2{fill:#2f3a3e}.cls-3{fill:#3ab14a}</style>
  </defs>
  <sodipodi:namedview
     pagecolor="#ffffff"
     bordercolor="#666666"
     borderopacity="1"
     objecttolerance="10"
     gridtolerance="10"
     guidetolerance="10"
     inkscape:pageopacity="0"
     inkscape:pageshadow="2"
     inkscape:window-width="1440"
     inkscape:window-height="830"
     id="namedview987"
     showgrid="false"
     inkscape:zoom="9.7999999"
     inkscape:cx="29.5"
     inkscape:cy="30"
     inkscape:window-x="0"
     inkscape:window-y="34"
     inkscape:window-maximized="1"
     inkscape:current-layer="g6716"
     showguides="true"
     inkscape:guide-bbox="true" />
  <style
     id="style979">.st0{fill:#d4b830}.st1,.st2{opacity:.986;fill:#ebebeb;fill-opacity:0;enable-background:new}.st2{fill-opacity:.9216}.st3{fill:#fdd83c}</style>
  <style
     id="style4914">.st0{enable-background:new}.st1{opacity:.783}.st2{opacity:.576;enable-background:new}.st3{fill:none}.st4,.st5{opacity:.67;fill:url(#SVGID_1_);enable-background:new}.st5{opacity:.505;fill:url(#SVGID_2_)}.st6{fill:url(#SVGID_3_)}.st7,.st8{enable-background:new}.st7{fill:url(#SVGID_4_);opacity:.217}.st8{opacity:.276;filter:url(#l)}.st9{fill:url(#SVGID_5_)}.st10,.st11{enable-background:new}.st10{fill:url(#SVGID_6_);opacity:.453}.st11{opacity:.512;filter:url(#o)}.st12{fill:url(#SVGID_7_)}.st13,.st14{enable-background:new}.st13{fill:url(#SVGID_8_);opacity:.286}.st14{opacity:.621;filter:url(#r)}.st15{fill:url(#SVGID_9_)}.st16{filter:url(#t)}.st17{fill:url(#SVGID_10_)}.st18{opacity:.286;fill:url(#SVGID_11_);enable-background:new}.st19{fill:url(#SVGID_12_)}.st20{fill:url(#SVGID_13_)}.st21{fill:url(#SVGID_14_)}.st22{opacity:.286;fill:url(#SVGID_15_);enable-background:new}.st23{fill:url(#SVGID_16_)}.st24{opacity:.616;filter:url(#w);enable-background:new}.st25{fill:url(#SVGID_17_)}.st26{fill:none;stroke:url(#SVGID_18_);stroke-width:1.004}.st27{opacity:.325;filter:url(#A);enable-background:new}.st28{fill:url(#SVGID_19_)}.st29{fill:url(#SVGID_20_)}.st30{opacity:.478;filter:url(#D);enable-background:new}.st31{fill:url(#SVGID_21_)}.st32{opacity:.586;fill:#fff}.st32,.st33,.st34{enable-background:new}.st33{fill:url(#SVGID_22_);opacity:.251}.st34{opacity:.363;filter:url(#F)}.st35{fill:url(#SVGID_23_)}</style>
  <style
     id="style5276">.st0{display:none}.st1{display:inline}.st2{fill:#fba919}.st3{fill:#e78724}.st4{fill:#87ccee}.st5{fill:#fdc168}.st6{fill:#fff}.st7{fill:#c9c9c9}.st8{fill:#463014}</style>
  <g
     id="g5536"
     transform="translate(1.3789781,3.6690006)">
    <g
       id="g5679"
       transform="matrix(0.1166,0,0,0.1166,-5.6517503,-0.17812309)">
      <g
         id="g6716"
         transform="matrix(0.42746712,0,0,0.42746712,33.179115,-35.315659)">
        <path
           id="path6693"
           d="M -18.458,6.58 H 172.693 V 139.07 H -18.458 Z"
           inkscape:connector-curvature="0"
           style="fill:none" />
        <g
           id="g6763"
           transform="matrix(0.54044459,0,0,0.53308947,7.9456963,12.38385)">
          <path
             id="path6743"
             d="m 255.008,158.086 c -1.535,-4.649 -5.556,-7.887 -10.756,-8.664 -2.452,-0.366 -5.26,-0.21 -8.583,0.475 -5.792,1.195 -10.089,1.65 -13.225,1.738 11.837,-19.985 21.462,-42.775 27.003,-64.228 8.96,-34.689 4.172,-50.492 -1.423,-57.64 C 233.217,10.847 211.614,0.683 185.552,0.372 171.649,0.202 159.444,2.947 153.077,4.921 147.149,3.875 140.775,3.291 134.087,3.183 121.55,2.983 110.473,5.716 101.008,11.333 95.768,9.561 87.358,7.063 77.646,5.469 54.804,1.719 36.394,4.641 22.928,14.154 6.622,25.672 -0.937,45.684 0.461,73.634 c 0.444,8.874 5.408,35.874 13.224,61.48 4.492,14.718 9.282,26.94 14.237,36.33 7.027,13.315 14.546,21.156 22.987,23.972 4.731,1.576 13.327,2.68 22.368,-4.85 1.146,1.388 2.675,2.767 4.704,4.048 2.577,1.625 5.728,2.953 8.875,3.74 11.341,2.835 21.964,2.126 31.027,-1.848 0.056,1.612 0.099,3.152 0.135,4.482 0.06,2.157 0.12,4.272 0.199,6.25 0.537,13.374 1.447,23.773 4.143,31.049 0.148,0.4 0.347,1.01 0.557,1.657 1.345,4.118 3.594,11.012 9.316,16.411 5.925,5.593 13.092,7.308 19.656,7.308 3.292,0 6.433,-0.432 9.188,-1.022 9.82,-2.105 20.973,-5.311 29.041,-16.799 7.628,-10.86 11.336,-27.217 12.007,-52.99 0.087,-0.729 0.167,-1.425 0.244,-2.088 l 0.16,-1.362 1.797,0.158 0.463,0.031 c 10.002,0.456 22.232,-1.665 29.743,-5.154 5.935,-2.754 24.954,-12.795 20.476,-26.351"
             inkscape:connector-curvature="0" />
          <path
             id="path6745"
             d="m 237.906,160.722 c -29.74,6.135 -31.785,-3.934 -31.785,-3.934 31.4,-46.593 44.527,-105.736 33.2,-120.211 C 208.417,-2.908 154.922,15.766 154.029,16.25 l -0.287,0.052 c -5.876,-1.22 -12.451,-1.946 -19.842,-2.067 -13.456,-0.22 -23.664,3.528 -31.41,9.402 0,0 -95.43,-39.314 -90.991,49.444 0.944,18.882 27.064,142.873 58.218,105.422 11.387,-13.695 22.39,-25.274 22.39,-25.274 5.464,3.63 12.006,5.482 18.864,4.817 l 0.533,-0.452 c -0.166,1.7 -0.09,3.363 0.213,5.332 -8.026,8.967 -5.667,10.541 -21.711,13.844 -16.235,3.346 -6.698,9.302 -0.471,10.86 7.549,1.887 25.013,4.561 36.813,-11.958 l -0.47,1.885 c 3.144,2.519 5.352,16.383 4.982,28.952 -0.37,12.568 -0.617,21.197 1.86,27.937 2.479,6.74 4.948,21.905 26.04,17.386 17.623,-3.777 26.756,-13.564 28.027,-29.89 0.901,-11.606 2.942,-9.89 3.07,-20.267 l 1.637,-4.912 c 1.887,-15.733 0.3,-20.809 11.157,-18.448 l 2.64,0.232 c 7.99,0.363 18.45,-1.286 24.589,-4.139 13.218,-6.134 21.058,-16.377 8.024,-13.686 h 0.002"
             inkscape:connector-curvature="0"
             style="fill:#336791" />
          <path
             id="path6747"
             d="m 108.076,81.525 c -2.68,-0.373 -5.107,-0.028 -6.335,0.902 -0.69,0.523 -0.904,1.129 -0.962,1.546 -0.154,1.105 0.62,2.327 1.096,2.957 1.346,1.784 3.312,3.01 5.258,3.28 0.282,0.04 0.563,0.058 0.842,0.058 3.245,0 6.196,-2.527 6.456,-4.392 0.325,-2.336 -3.066,-3.893 -6.355,-4.35 m 88.784,0.073 c -0.256,-1.831 -3.514,-2.353 -6.606,-1.923 -3.088,0.43 -6.082,1.824 -5.832,3.659 0.2,1.427 2.777,3.863 5.827,3.863 0.258,0 0.518,-0.017 0.78,-0.054 2.036,-0.282 3.53,-1.575 4.24,-2.32 1.08,-1.136 1.706,-2.402 1.591,-3.225"
             inkscape:connector-curvature="0"
             style="fill:#ffffff" />
          <path
             id="path6749"
             d="m 247.802,160.025 c -1.134,-3.429 -4.784,-4.532 -10.848,-3.28 -18.005,3.716 -24.453,1.142 -26.57,-0.417 13.995,-21.32 25.508,-47.092 31.719,-71.137 2.942,-11.39 4.567,-21.968 4.7,-30.59 0.147,-9.463 -1.465,-16.417 -4.789,-20.665 C 228.612,16.811 208.942,7.625 185.132,7.373 168.763,7.189 154.933,11.378 152.252,12.556 146.606,11.152 140.451,10.29 133.75,10.18 121.462,9.981 110.84,12.923 102.046,18.92 98.226,17.498 88.354,14.109 76.281,12.164 55.409,8.804 38.823,11.35 26.987,19.735 12.864,29.741 6.344,47.627 7.607,72.895 c 0.425,8.501 5.269,34.653 12.913,59.698 10.062,32.964 21,51.625 32.508,55.464 1.347,0.449 2.9,0.763 4.613,0.763 4.198,0 9.345,-1.892 14.7,-8.33 a 529.832,529.832 0 0 1 20.261,-22.926 c 4.524,2.428 9.494,3.784 14.577,3.92 0.01,0.133 0.023,0.266 0.035,0.398 a 117.66,117.66 0 0 0 -2.57,3.175 c -3.522,4.471 -4.255,5.402 -15.592,7.736 -3.225,0.666 -11.79,2.431 -11.916,8.435 -0.136,6.56 10.125,9.315 11.294,9.607 4.074,1.02 7.999,1.523 11.742,1.523 9.103,0 17.114,-2.992 23.516,-8.781 -0.197,23.386 0.778,46.43 3.586,53.451 2.3,5.748 7.918,19.795 25.664,19.794 2.604,0 5.47,-0.303 8.623,-0.979 18.521,-3.97 26.564,-12.156 29.675,-30.203 1.665,-9.645 4.522,-32.676 5.866,-45.03 2.836,0.885 6.487,1.29 10.434,1.289 8.232,0 17.731,-1.749 23.688,-4.514 6.692,-3.108 18.768,-10.734 16.578,-17.36 z m -44.106,-83.48 c -0.061,3.647 -0.563,6.958 -1.095,10.414 -0.573,3.717 -1.165,7.56 -1.314,12.225 -0.147,4.54 0.42,9.26 0.968,13.825 1.108,9.22 2.245,18.712 -2.156,28.078 a 36.508,36.508 0 0 1 -1.95,-4.009 c -0.547,-1.326 -1.735,-3.456 -3.38,-6.404 -6.399,-11.476 -21.384,-38.35 -13.713,-49.316 2.285,-3.264 8.084,-6.62 22.64,-4.813 z M 186.052,14.758 c 21.334,0.471 38.21,8.452 50.158,23.72 9.164,11.711 -0.927,64.998 -30.14,110.969 a 171.33,171.33 0 0 0 -0.886,-1.117 l -0.37,-0.462 c 7.549,-12.467 6.073,-24.802 4.759,-35.738 -0.54,-4.488 -1.05,-8.727 -0.92,-12.709 0.134,-4.22 0.692,-7.84 1.232,-11.34 0.663,-4.313 1.338,-8.776 1.152,-14.037 0.139,-0.552 0.195,-1.204 0.122,-1.978 -0.475,-5.045 -6.235,-20.144 -17.975,-33.81 -6.422,-7.475 -15.787,-15.84 -28.574,-21.482 5.5,-1.14 13.021,-2.203 21.442,-2.016 z M 66.674,175.778 c -5.9,7.094 -9.974,5.734 -11.314,5.288 C 46.63,178.154 36.5,159.702 27.569,130.442 19.841,105.124 15.325,79.665 14.967,72.526 13.839,49.948 19.312,34.213 31.235,25.757 50.639,11.997 82.541,20.233 95.36,24.41 c -0.184,0.182 -0.376,0.352 -0.558,0.537 -21.036,21.244 -20.537,57.54 -20.485,59.759 -0.002,0.856 0.07,2.068 0.168,3.735 0.362,6.105 1.036,17.467 -0.764,30.334 -1.672,11.957 2.014,23.66 10.111,32.109 a 36.275,36.275 0 0 0 2.617,2.468 c -3.604,3.86 -11.437,12.396 -19.775,22.426 z m 22.479,-29.993 c -6.526,-6.81 -9.49,-16.282 -8.133,-25.99 1.9,-13.592 1.199,-25.43 0.822,-31.79 -0.053,-0.89 -0.1,-1.67 -0.127,-2.285 3.073,-2.725 17.314,-10.355 27.47,-8.028 4.634,1.061 7.458,4.217 8.632,9.645 6.076,28.103 0.804,39.816 -3.432,49.229 -0.873,1.939 -1.698,3.772 -2.402,5.668 l -0.546,1.466 c -1.382,3.706 -2.668,7.152 -3.465,10.424 -6.938,-0.02 -13.687,-2.984 -18.819,-8.34 z m 1.065,37.9 c -2.026,-0.506 -3.848,-1.385 -4.917,-2.114 0.893,-0.42 2.482,-0.992 5.238,-1.56 13.337,-2.745 15.397,-4.683 19.895,-10.394 1.031,-1.31 2.2,-2.794 3.819,-4.602 l 0.002,-0.002 c 2.411,-2.7 3.514,-2.242 5.514,-1.412 1.621,0.67 3.2,2.702 3.84,4.938 0.303,1.056 0.643,3.06 -0.47,4.62 -9.396,13.156 -23.088,12.987 -32.921,10.526 z m 69.799,64.952 c -16.316,3.496 -22.093,-4.829 -25.9,-14.346 -2.457,-6.144 -3.665,-33.85 -2.808,-64.447 0.011,-0.407 -0.047,-0.8 -0.159,-1.17 a 15.444,15.444 0 0 0 -0.456,-2.162 c -1.274,-4.452 -4.379,-8.176 -8.104,-9.72 -1.48,-0.613 -4.196,-1.738 -7.46,-0.903 0.696,-2.868 1.903,-6.107 3.212,-9.614 l 0.549,-1.475 c 0.618,-1.663 1.394,-3.386 2.214,-5.21 4.433,-9.848 10.504,-23.337 3.915,-53.81 -2.468,-11.414 -10.71,-16.988 -23.204,-15.693 -7.49,0.775 -14.343,3.797 -17.761,5.53 -0.735,0.372 -1.407,0.732 -2.035,1.082 0.954,-11.5 4.558,-32.992 18.04,-46.59 8.489,-8.56 19.794,-12.788 33.568,-12.56 27.14,0.444 44.544,14.372 54.366,25.979 8.464,10.001 13.047,20.076 14.876,25.51 -13.755,-1.399 -23.11,1.316 -27.852,8.096 -10.317,14.748 5.644,43.372 13.315,57.129 1.407,2.521 2.621,4.7 3.003,5.626 2.498,6.054 5.732,10.096 8.093,13.046 0.724,0.904 1.426,1.781 1.96,2.547 -4.166,1.201 -11.649,3.976 -10.967,17.847 -0.55,6.96 -4.461,39.546 -6.448,51.059 -2.623,15.21 -8.22,20.875 -23.957,24.25 z m 68.104,-77.936 c -4.26,1.977 -11.389,3.46 -18.161,3.779 -7.48,0.35 -11.288,-0.838 -12.184,-1.569 -0.42,-8.644 2.797,-9.547 6.202,-10.503 0.535,-0.15 1.057,-0.297 1.561,-0.473 0.313,0.255 0.656,0.508 1.032,0.756 6.012,3.968 16.735,4.396 31.874,1.271 l 0.166,-0.033 c -2.042,1.909 -5.536,4.471 -10.49,6.772 z"
             inkscape:connector-curvature="0"
             style="fill:#ffffff" />
        </g>
      </g>
    </g>
  </g>
  <style
     id="style6193">.st0{enable-background:new}.st1{opacity:.783}.st2{opacity:.576;enable-background:new}.st3{fill:none}.st4,.st5{opacity:.67;fill:url(#SVGID_1_);enable-background:new}.st5{opacity:.505;fill:url(#SVGID_2_)}.st6{fill:url(#SVGID_3_)}.st7,.st8{enable-background:new}.st7{fill:url(#SVGID_4_);opacity:.217}.st8{opacity:.276;filter:url(#l)}.st9{fill:url(#SVGID_5_)}.st10,.st11{enable-background:new}.st10{fill:url(#SVGID_6_);opacity:.453}.st11{opacity:.512;filter:url(#o)}.st12{fill:url(#SVGID_7_)}.st13,.st14{enable-background:new}.st13{fill:url(#SVGID_8_);opacity:.286}.st14{opacity:.621;filter:url(#r)}.st15{fill:url(#SVGID_9_)}.st16{filter:url(#t)}.st17{fill:url(#SVGID_10_)}.st18{opacity:.286;fill:url(#SVGID_11_);enable-background:new}.st19{fill:url(#SVGID_12_)}.st20{fill:url(#SVGID_13_)}.st21{fill:url(#SVGID_14_)}.st22{opacity:.286;fill:url(#SVGID_15_);enable-background:new}.st23{fill:url(#SVGID_16_)}.st24{opacity:.616;filter:url(#w);enable-background:new}.st25{fill:url(#SVGID_17_)}.st26{fill:none;stroke:url(#SVGID_18_);stroke-width:1.004}.st27{opacity:.325;filter:url(#A);enable-background:new}.st28{fill:url(#SVGID_19_)}.st29{fill:url(#SVGID_20_)}.st30{opacity:.478;filter:url(#D);enable-background:new}.st31{fill:url(#SVGID_21_)}.st32{opacity:.586;fill:#fff}.st32,.st33,.st34{enable-background:new}.st33{fill:url(#SVGID_22_);opacity:.251}.st34{opacity:.363;filter:url(#F)}.st35{fill:url(#SVGID_23_)}</style>
</svg>
