<?xml version="1.0" encoding="UTF-8" standalone="no"?>
<svg
   xmlns:dc="http://purl.org/dc/elements/1.1/"
   xmlns:cc="http://creativecommons.org/ns#"
   xmlns:rdf="http://www.w3.org/1999/02/22-rdf-syntax-ns#"
   xmlns:svg="http://www.w3.org/2000/svg"
   xmlns="http://www.w3.org/2000/svg"
   xmlns:sodipodi="http://sodipodi.sourceforge.net/DTD/sodipodi-0.dtd"
   xmlns:inkscape="http://www.inkscape.org/namespaces/inkscape"
   id="svg4525"
   viewBox="0 0 6.5295134 6.996"
   width="56"
   height="60"
   version="1.1"
   sodipodi:docname="logo-prestashop.svg"
   inkscape:export-filename="/home/www/neocarvajal.github.io/assets/images/logo-javascript.svg.png"
   inkscape:export-xdpi="96"
   inkscape:export-ydpi="96"
   inkscape:version="0.92.4 5da689c313, 2019-01-14">
  <metadata
     id="metadata991">
    <rdf:RDF>
      <cc:Work
         rdf:about="">
        <dc:format>image/svg+xml</dc:format>
        <dc:type
           rdf:resource="http://purl.org/dc/dcmitype/StillImage" />
        <dc:title></dc:title>
      </cc:Work>
    </rdf:RDF>
  </metadata>
  <defs
     id="defs989">
    <linearGradient
       id="a"
       y2="148.33623"
       x2="151.13584"
       y1="22.897128"
       x1="24.714632"
       gradientTransform="scale(0.99888681,1.0011144)"
       gradientUnits="userSpaceOnUse">
      <stop
         id="stop5964"
         offset="0%"
         stop-color="#387EB8" />
      <stop
         id="stop5966"
         offset="100%"
         stop-color="#366994" />
    </linearGradient>
    <linearGradient
       id="b"
       y2="231.90517"
       x2="238.2592"
       y1="103.26573"
       x1="102.48345"
       gradientTransform="scale(0.99888668,1.0011146)"
       gradientUnits="userSpaceOnUse">
      <stop
         id="stop5969"
         offset="0%"
         stop-color="#FFE052" />
      <stop
         id="stop5971"
         offset="100%"
         stop-color="#FFC331" />
    </linearGradient>
  </defs>
  <sodipodi:namedview
     pagecolor="#ffffff"
     bordercolor="#666666"
     borderopacity="1"
     objecttolerance="10"
     gridtolerance="10"
     guidetolerance="10"
     inkscape:pageopacity="0"
     inkscape:pageshadow="2"
     inkscape:window-width="1440"
     inkscape:window-height="830"
     id="namedview987"
     showgrid="false"
     inkscape:zoom="4.9096805"
     inkscape:cx="29.393299"
     inkscape:cy="22.237582"
     inkscape:window-x="0"
     inkscape:window-y="34"
     inkscape:window-maximized="1"
     inkscape:current-layer="g5679" />
  <style
     id="style979">.st0{fill:#d4b830}.st1,.st2{opacity:.986;fill:#ebebeb;fill-opacity:0;enable-background:new}.st2{fill-opacity:.9216}.st3{fill:#fdd83c}</style>
  <style
     id="style4914">.st0{enable-background:new}.st1{opacity:.783}.st2{opacity:.576;enable-background:new}.st3{fill:none}.st4,.st5{opacity:.67;fill:url(#SVGID_1_);enable-background:new}.st5{opacity:.505;fill:url(#SVGID_2_)}.st6{fill:url(#SVGID_3_)}.st7,.st8{enable-background:new}.st7{fill:url(#SVGID_4_);opacity:.217}.st8{opacity:.276;filter:url(#l)}.st9{fill:url(#SVGID_5_)}.st10,.st11{enable-background:new}.st10{fill:url(#SVGID_6_);opacity:.453}.st11{opacity:.512;filter:url(#o)}.st12{fill:url(#SVGID_7_)}.st13,.st14{enable-background:new}.st13{fill:url(#SVGID_8_);opacity:.286}.st14{opacity:.621;filter:url(#r)}.st15{fill:url(#SVGID_9_)}.st16{filter:url(#t)}.st17{fill:url(#SVGID_10_)}.st18{opacity:.286;fill:url(#SVGID_11_);enable-background:new}.st19{fill:url(#SVGID_12_)}.st20{fill:url(#SVGID_13_)}.st21{fill:url(#SVGID_14_)}.st22{opacity:.286;fill:url(#SVGID_15_);enable-background:new}.st23{fill:url(#SVGID_16_)}.st24{opacity:.616;filter:url(#w);enable-background:new}.st25{fill:url(#SVGID_17_)}.st26{fill:none;stroke:url(#SVGID_18_);stroke-width:1.004}.st27{opacity:.325;filter:url(#A);enable-background:new}.st28{fill:url(#SVGID_19_)}.st29{fill:url(#SVGID_20_)}.st30{opacity:.478;filter:url(#D);enable-background:new}.st31{fill:url(#SVGID_21_)}.st32{opacity:.586;fill:#fff}.st32,.st33,.st34{enable-background:new}.st33{fill:url(#SVGID_22_);opacity:.251}.st34{opacity:.363;filter:url(#F)}.st35{fill:url(#SVGID_23_)}</style>
  <style
     id="style5276">.st0{display:none}.st1{display:inline}.st2{fill:#fba919}.st3{fill:#e78724}.st4{fill:#87ccee}.st5{fill:#fdc168}.st6{fill:#fff}.st7{fill:#c9c9c9}.st8{fill:#463014}</style>
  <g
     id="g5536"
     transform="translate(0.20280316,1.5097568)">
    <g
       id="g5679"
       transform="matrix(0.1166,0,0,0.1166,-5.6517503,-0.17812309)">
      <g
         id="g6140"
         transform="matrix(0.21606906,0,0,0.21606906,47.074754,-9.0773689)">
        <path
           id="path6015"
           d="m 82.979,196.416 c 2.044,-0.91 4.115,-1.747 6.205,-2.532 2.36,-0.887 4.739,-1.721 7.15,-2.447 3.001,-0.904 6.027,-1.722 9.094,-2.373 a 112.799,112.799 0 0 1 12.534,-1.937 391.813,391.813 0 0 1 -7.808,22.168 73.56,73.56 0 0 1 0.224,4.288 90.939,90.939 0 0 1 17.622,-1.727 c 6.031,0 11.92,0.602 17.622,1.727 a 73.56,73.56 0 0 1 0.224,-4.288 391.028,391.028 0 0 1 -7.808,-22.168 c 4.215,0.409 8.399,1.059 12.534,1.937 3.066,0.651 6.092,1.469 9.093,2.373 2.412,0.726 4.791,1.56 7.151,2.447 2.091,0.786 4.163,1.623 6.207,2.533 a 111.065,111.065 0 0 1 38.57,28.471 C 238.773,201.417 256,166.731 256,128 256,57.308 198.692,0 128,0 57.308,0 0,57.308 0,128 c 0,38.731 17.227,73.416 44.407,96.888 a 111.075,111.075 0 0 1 38.572,-28.472"
           inkscape:connector-curvature="0"
           style="fill:#a5dbe8" />
        <path
           id="path6017"
           d="m 173.023,196.417 7.946,27.323 2.254,0.106 c 1.463,0 2.492,0.385 2.492,1.848 0,2.432 0.126,5.165 0.359,7.551 1.98,1.681 4.391,3.577 6.219,5.419 a 128.305,128.305 0 0 0 19.3,-13.776 111.065,111.065 0 0 0 -38.57,-28.471 m -15.537,-0.273 9.33,-2.26 c -2.36,-0.887 -4.739,-1.721 -7.151,-2.447 -3.001,-0.904 -6.027,-1.722 -9.093,-2.373 a 112.799,112.799 0 0 0 -12.534,-1.937 391.028,391.028 0 0 0 7.808,22.168 73.56,73.56 0 0 0 -0.224,4.288 c 6.611,1.304 13.111,3.57 19.121,6.228 l -7.257,-23.667"
           inkscape:connector-curvature="0"
           style="fill:#525353" />
        <path
           id="path6019"
           d="m 63.707,238.664 c 1.486,0.866 2.987,1.711 4.513,2.518 0.534,-2.565 1.388,-6.119 1.646,-8.758 -1.98,1.681 -4.331,4.398 -6.159,6.24 m 100.88,-19.089 A 89.823,89.823 0 0 0 145.622,213.583 90.947,90.947 0 0 0 128,211.856 c -6.032,0 -11.92,0.602 -17.622,1.727 -6.61,1.303 -13.507,3.28 -19.515,5.937 l -0.639,3.981 h 75.554 l -1.191,-3.926"
           inkscape:connector-curvature="0" />
        <path
           id="path6021"
           d="m 69.632,233.182 c 0.234,-2.386 0.403,-4.513 0.403,-6.946 0,-1.462 1.003,-2.399 2.466,-2.399 l 2.399,-0.084 8.079,-27.337 a 111.075,111.075 0 0 0 -38.572,28.472 128.305,128.305 0 0 0 19.3,13.776 91.293,91.293 0 0 1 5.712,-5.29"
           inkscape:connector-curvature="0"
           style="fill:#525353" />
        <path
           id="path6023"
           d="m 187.051,238.045 c 0.518,2.6 0.635,3.118 0.729,3.137 a 126.245,126.245 0 0 0 4.513,-2.518 92.99,92.99 0 0 0 -5.772,-5.349 l 0.53,4.73"
           inkscape:connector-curvature="0" />
        <path
           id="path6025"
           d="m 164.587,219.575 1.191,3.926 h 15.454 l -8.209,-27.084 a 113.032,113.032 0 0 0 -6.207,-2.533 l -9.33,2.26 7.101,23.431"
           inkscape:connector-curvature="0"
           style="fill:#aa9678" />
        <path
           id="path6027"
           d="m 75.039,228.971 c 0.081,-0.057 0.163,-0.114 0.243,-0.172 H 75.05 c -0.002,0.057 -0.008,0.115 -0.011,0.172"
           inkscape:connector-curvature="0"
           style="fill:#c4b6a1" />
        <path
           id="path6029"
           d="m 180.95,228.799 h -0.233 l 0.243,0.172 c -0.002,-0.057 -0.008,-0.115 -0.01,-0.172"
           inkscape:connector-curvature="0"
           style="fill:#aa9678" />
        <path
           id="path6031"
           d="M 180.684,228.404 127.89,228.464 128,256 c 19.648,0 38.256,-4.439 54.893,-12.351 -1.086,-4.772 -1.195,-9.912 -1.372,-14.914 -0.08,-0.058 -0.837,-0.331 -0.837,-0.331"
           inkscape:connector-curvature="0"
           style="fill:#aa9678" />
        <path
           id="path6033"
           d="m 127.915,228.578 c 0,0 -53.085,-0.067 -53.166,-0.01 -0.176,5.003 -1.208,10.939 -1.642,15.081 C 89.744,251.561 108.352,256 128,256 l 0.03,-27.333 -0.115,-0.089"
           inkscape:connector-curvature="0"
           style="fill:#c4b6a1" />
        <path
           id="path6035"
           d="m 128,226.15 h 0.001 v 2.649 H 128 Z"
           inkscape:connector-curvature="0"
           style="fill:#786453" />
        <path
           id="path6037"
           d="M 164.649,205.236"
           inkscape:connector-curvature="0"
           style="fill:#525353" />
        <path
           id="path6039"
           d="m 167.594,208.16 0.027,0.083 -0.027,-0.083 c 0,0 -1.298,-1.029 -2.945,-2.924 1.647,1.895 2.945,2.924 2.945,2.924"
           inkscape:connector-curvature="0"
           style="fill:#aa9678" />
        <path
           id="path6041"
           d="m 206.706,92.348 v 0.006 -0.006 m 5.151,36.853 0.001,-0.038 -0.001,0.038"
           inkscape:connector-curvature="0"
           style="fill:#ffffff" />
        <path
           id="path6043"
           d="m 211.858,129.163 -0.001,-0.035 0.001,0.035"
           inkscape:connector-curvature="0"
           style="fill:#bbbcbd" />
        <path
           id="path6045"
           d="m 211.714,127.169 c 0.004,0.034 0.014,0.064 0.018,0.098 0.003,0.021 0.009,0.04 0.012,0.06 v 0.008 c 0.061,0.489 0.084,1 0.095,1.515 0.002,0.095 0.018,0.184 0.018,0.278 l 0.001,0.035 -0.001,0.038 c -0.001,0.102 -0.018,0.197 -0.019,0.298 a 15.253,15.253 0 0 1 -0.093,1.486 v 0.007 l -0.014,0.073 c -0.004,0.039 -0.016,0.074 -0.021,0.112 a 13.734,13.734 0 0 1 -0.287,1.515 l -0.002,0.007 v 10e-4 l 0.018,-0.02 0.007,-0.023 v 10e-4 l 3.35,-3.507 -3.377,-3.535 10e-4,0.007 c 0.126,0.493 0.222,1.011 0.294,1.546"
           inkscape:connector-curvature="0"
           style="fill:#676a6a" />
        <path
           id="path6047"
           d="m 211.71,131.177 c 0.009,-0.066 0.026,-0.125 0.035,-0.192 0.059,-0.48 0.081,-0.981 0.093,-1.486 0.001,-0.114 0.019,-0.221 0.019,-0.336 0,-0.107 -0.016,-0.207 -0.018,-0.313 a 14.914,14.914 0 0 0 -0.095,-1.515 c -0.008,-0.058 -0.023,-0.109 -0.03,-0.166 a 13.565,13.565 0 0 0 -0.294,-1.546 c -0.044,-0.172 -0.105,-0.325 -0.156,-0.491 -0.303,-1.002 -0.716,-1.887 -1.206,-2.622 a 7.962,7.962 0 0 0 -0.614,-0.8 5.192,5.192 0 0 0 -0.662,-0.615 c -0.088,-0.067 -0.181,-0.114 -0.271,-0.172 a 3.763,3.763 0 0 0 -0.888,-0.429 3.108,3.108 0 0 0 -0.917,-0.158 c -0.314,0 -0.618,0.066 -0.917,0.158 a 3.73,3.73 0 0 0 -0.889,0.429 c -0.088,0.058 -0.182,0.104 -0.269,0.171 a 5.282,5.282 0 0 0 -1.074,1.129 6.73,6.73 0 0 0 -0.203,0.288 c -0.49,0.735 -0.904,1.62 -1.206,2.622 l -0.038,0.12 c -0.134,0.46 -0.238,0.944 -0.325,1.441 -0.026,0.152 -0.061,0.298 -0.082,0.454 -0.08,0.556 -0.121,1.136 -0.131,1.73 -0.001,0.082 -0.014,0.16 -0.014,0.242 h 0.02 c 0,4.876 2.307,8.828 5.152,8.828 0.49,0 0.961,-0.128 1.41,-0.347 a 4.169,4.169 0 0 0 0.758,-0.479 c 0.097,-0.078 0.188,-0.172 0.281,-0.26 0.227,-0.212 0.443,-0.452 0.648,-0.719 0.142,-0.187 0.282,-0.374 0.412,-0.583 0.083,-0.133 0.159,-0.277 0.236,-0.419 0.144,-0.266 0.28,-0.543 0.403,-0.837 0.046,-0.106 0.093,-0.209 0.135,-0.318 0.157,-0.409 0.294,-0.841 0.41,-1.294 0.123,-0.483 0.215,-0.991 0.287,-1.515 z m -4.819,-3.189 c -1.067,0 -1.932,-1.483 -1.932,-3.311 0,-1.827 0.865,-3.31 1.932,-3.31 1.067,0 1.931,1.483 1.931,3.31 0,1.828 -0.864,3.311 -1.931,3.311 z"
           inkscape:connector-curvature="0" />
        <path
           id="path6049"
           d="m 206.891,121.367 c -1.067,0 -1.932,1.483 -1.932,3.31 0,1.828 0.865,3.311 1.932,3.311 1.067,0 1.931,-1.483 1.931,-3.311 0,-1.827 -0.864,-3.31 -1.931,-3.31"
           inkscape:connector-curvature="0"
           style="fill:#ffffff" />
        <path
           id="path6051"
           d="m 202.148,125.133 c 0.302,-1.002 0.716,-1.887 1.206,-2.622 0.066,-0.1 0.133,-0.193 0.203,-0.288 a 5.209,5.209 0 0 1 1.074,-1.129 c 0.087,-0.067 0.181,-0.113 0.269,-0.171 a 3.69,3.69 0 0 1 0.889,-0.429 c 0.298,-0.094 0.603,-0.158 0.917,-0.158 0.314,0 0.619,0.064 0.917,0.158 a 3.763,3.763 0 0 1 0.888,0.429 c 0.09,0.058 0.183,0.105 0.271,0.172 0.23,0.176 0.45,0.384 0.662,0.615 a 7.962,7.962 0 0 1 0.614,0.8 c 0.49,0.735 0.903,1.62 1.206,2.622 v 0.002 l -4.558,-20.877 -4.559,20.876 h 0.001"
           inkscape:connector-curvature="0"
           style="fill:#909393" />
        <path
           id="path6053"
           d="m 146.299,128.968 c -0.006,-0.42 -0.033,-0.835 -0.08,-1.243 -0.001,-0.005 -0.003,-0.011 -0.003,-0.017 a 12.216,12.216 0 0 0 -0.201,-1.188 l -0.008,-0.03 a 12.012,12.012 0 0 0 -0.313,-1.134 l -0.01,-0.025 a 11.438,11.438 0 0 0 -0.422,-1.088 c -0.002,-0.007 -0.007,-0.014 -0.01,-0.022 a 12.121,12.121 0 0 0 -6.441,-6.24 l -0.035,-0.013 a 11.963,11.963 0 0 0 -2.158,-0.651 c -0.019,-0.003 -0.037,-0.004 -0.056,-0.008 a 11.99,11.99 0 0 0 -2.313,-0.227 c -0.779,0 -1.536,0.08 -2.273,0.221 l -0.078,0.012 c -0.733,0.146 -1.44,0.36 -2.119,0.632 l -0.054,0.021 a 11.952,11.952 0 0 0 -1.969,1.021 c -0.623,0.402 -1.208,0.859 -1.746,1.364 l -0.013,0.041 -0.045,0.01 a 12.222,12.222 0 0 0 -2.189,2.794 l -0.022,0.037 c -0.18,0.317 -0.343,0.647 -0.493,0.983 -0.016,0.036 -0.036,0.07 -0.051,0.106 -0.137,0.311 -0.255,0.633 -0.365,0.957 -0.021,0.064 -0.049,0.124 -0.069,0.187 -0.096,0.303 -0.174,0.614 -0.248,0.925 -0.019,0.09 -0.048,0.176 -0.067,0.265 -0.064,0.308 -0.108,0.623 -0.149,0.939 -0.012,0.097 -0.033,0.19 -0.043,0.287 a 12.002,12.002 0 0 0 0.164,3.588 c 0.002,0.015 0.003,0.032 0.007,0.048 0.151,0.753 0.373,1.479 0.658,2.174 0.004,0.01 0.006,0.02 0.011,0.029 a 12.103,12.103 0 0 0 2.456,3.76 c 0.82,0.855 1.764,1.588 2.802,2.174 l 0.015,0.009 c 0.324,0.182 0.659,0.346 1,0.498 0.028,0.012 0.055,0.028 0.084,0.04 0.316,0.138 0.643,0.257 0.972,0.368 0.056,0.019 0.11,0.043 0.166,0.061 0.304,0.097 0.618,0.175 0.932,0.247 0.085,0.02 0.167,0.048 0.253,0.066 0.305,0.063 0.619,0.106 0.935,0.147 0.095,0.011 0.189,0.033 0.286,0.043 a 12.033,12.033 0 0 0 7.994,-1.994 12.135,12.135 0 0 0 3.258,-3.257 12.027,12.027 0 0 0 2.06,-6.743 c 0,-0.029 -0.004,-0.056 -0.004,-0.083 -0.001,-0.031 -0.005,-0.06 -0.006,-0.091 z m -12.05,-1.413 a 4.5305,4.5305 0 1 1 0.001,-9.061 4.5305,4.5305 0 0 1 -0.001,9.061 z"
           inkscape:connector-curvature="0" />
        <path
           id="path6055"
           d="m 134.249,118.494 a 4.53,4.53 0 1 0 0,9.06 4.53,4.53 0 0 0 0,-9.06"
           inkscape:connector-curvature="0"
           style="fill:#ffffff" />
        <path
           id="path6057"
           d="m 125.952,120.404 0.045,-0.01 0.013,-0.041 8.306,-25.402 v -5.945 l -0.001,-0.067 a 70.787,70.787 0 0 0 -14.25,-1.47 c -1.625,0 -3.237,0.069 -4.839,0.178 -0.233,0.016 -0.467,0.03 -0.701,0.048 -8.337,0.633 -16.547,2.806 -24.149,6.276 -6.519,2.977 -12.576,6.898 -18.021,11.547 v 0.001 l -0.009,0.008 a 79.54,79.54 0 0 0 -4.231,3.897 c -0.256,0.25 -0.516,0.498 -0.769,0.752 a 85.568,85.568 0 0 0 -3.737,4.019 c -0.261,0.301 -0.518,0.608 -0.776,0.912 a 88.416,88.416 0 0 0 -3.502,4.383 c -0.093,0.126 -0.18,0.258 -0.272,0.384 a 89.737,89.737 0 0 0 -3.056,4.448 c -0.191,0.295 -0.387,0.586 -0.574,0.884 -0.79,1.253 -1.525,2.54 -2.255,3.83 h 37.837 l 34.941,-8.632"
           inkscape:connector-curvature="0"
           style="fill:#bbbcbd" />
        <path
           id="path6059"
           d="m 157.895,117.546 c 0.077,-0.991 0.14,-1.981 0.191,-2.973 0.069,-1.342 0.116,-2.686 0.142,-4.029 0.02,-1.043 0.017,-2.087 0.012,-3.13 0,-0.301 0.007,-0.602 0.004,-0.904 a 160.348,160.348 0 0 0 -0.297,-8.073 l -0.023,-0.015 -0.01,-0.019 a 720.847,720.847 0 0 0 -3.003,-1.716 l -0.07,-0.04 -0.783,-0.443 -0.014,-0.008 -0.543,-0.304 -0.107,-0.06 a 26.993,26.993 0 0 0 -0.395,-0.215 74.409,74.409 0 0 0 -5.319,-2.499 c -4.303,-1.817 -10.099,-3.41 -13.364,-4.179 v 6.012 l 8.233,25.443 0.009,0.021 c 0.85,0.81 1.581,1.741 2.167,2.767 v 0.001 c 0.192,0.336 0.368,0.683 0.527,1.038 0.004,0.008 0.008,0.015 0.01,0.022 0.159,0.354 0.299,0.717 0.422,1.088 l 0.01,0.025 c 0.122,0.371 0.227,0.749 0.313,1.134 l 0.008,0.03 c 0.086,0.389 0.153,0.786 0.201,1.188 0,0.006 0.002,0.012 0.003,0.017 0.047,0.408 0.074,0.823 0.08,1.243 l 0.031,0.068 h 10.081 a 110.087,110.087 0 0 0 1.457,-11.181 c 0.007,-0.103 0.019,-0.206 0.027,-0.309"
           inkscape:connector-curvature="0"
           style="fill:#e3dddb" />
        <path
           id="path6061"
           d="m 171.079,108.55 c -0.007,0.011 -0.012,0.024 -0.018,0.035 l 0.018,-0.034"
           inkscape:connector-curvature="0"
           style="fill:#fcb03f" />
        <path
           id="path6063"
           d="m 126.01,120.353 a 12.283,12.283 0 0 1 1.753,-1.367 11.952,11.952 0 0 1 1.962,-1.018 c 0.018,-0.008 0.037,-0.013 0.054,-0.021 a 11.994,11.994 0 0 1 2.119,-0.632 l 0.078,-0.012 a 12.065,12.065 0 0 1 2.273,-0.221 c 0.792,0 1.564,0.08 2.313,0.227 0.019,0.004 0.037,0.005 0.056,0.008 a 11.963,11.963 0 0 1 2.193,0.664 12.148,12.148 0 0 1 3.747,2.434 l -0.009,-0.021 -8.233,-25.443 -8.306,25.402"
           inkscape:connector-curvature="0"
           style="fill:#909393" />
        <path
           id="path6065"
           d="m 123.085,133.694 a 11.883,11.883 0 0 1 -0.658,-2.174 c -0.004,-0.016 -0.005,-0.033 -0.007,-0.048 a 12.002,12.002 0 0 1 -0.164,-3.588 c 0.01,-0.097 0.031,-0.19 0.043,-0.287 0.041,-0.316 0.085,-0.631 0.149,-0.939 0.019,-0.089 0.048,-0.175 0.067,-0.265 0.074,-0.311 0.152,-0.622 0.248,-0.925 0.021,-0.063 0.047,-0.123 0.069,-0.187 0.11,-0.324 0.228,-0.646 0.365,-0.957 0.015,-0.036 0.035,-0.07 0.051,-0.106 0.15,-0.336 0.313,-0.666 0.493,-0.983 l 0.022,-0.037 a 12.222,12.222 0 0 1 2.189,-2.794 l -34.941,8.632 h -0.067 l 34.608,8.447 a 12.103,12.103 0 0 1 -2.456,-3.76 c -0.005,-0.009 -0.007,-0.019 -0.011,-0.029"
           inkscape:connector-curvature="0"
           style="fill:#676a6a" />
        <path
           id="path6067"
           d="m 201.703,127.148 c 0.022,-0.156 0.055,-0.302 0.082,-0.454 0.087,-0.497 0.191,-0.981 0.325,-1.441 0.015,-0.052 0.021,-0.111 0.037,-0.162 l 4.559,-20.876 -10e-4,-11.903 c -3.725,-3.077 -7.714,-4.759 -11.867,-4.759 -5.248,0 -10.141,2.898 -13.8,6.477 -4.004,3.917 -7.098,8.845 -9.6,13.818 -0.115,0.229 -0.233,0.449 -0.347,0.679 0.771,0.668 1.534,1.345 2.287,2.034 a 185.465,185.465 0 0 1 5.016,4.781 c 0.766,0.756 1.518,1.528 2.272,2.297 0.8,0.815 1.601,1.628 2.389,2.456 a 235.571,235.571 0 0 1 4.262,4.598 271.342,271.342 0 0 1 3.565,4.011 l 0.002,0.002 c 0.197,0.206 0.335,0.354 0.388,0.414 h 10.282 c 0,-0.083 0.017,-0.159 0.018,-0.242 0.01,-0.594 0.051,-1.174 0.131,-1.73 m -30.613,-18.566 -0.011,-0.031 -0.018,0.034 0.045,0.044 a 0.868,0.868 0 0 0 -0.016,-0.047"
           inkscape:connector-curvature="0"
           style="fill:#e3dddb" />
        <path
           id="path6069"
           d="m 46.975,142.173 0.092,-0.23 a 96.97,96.97 0 0 1 4.768,-10.473 c 0.278,-0.528 0.55,-1.058 0.838,-1.581 0.159,-0.289 0.339,-0.565 0.501,-0.853 0.73,-1.29 1.465,-2.577 2.255,-3.83 0.187,-0.299 0.383,-0.589 0.574,-0.884 a 89.737,89.737 0 0 1 3.056,-4.448 c 0.092,-0.126 0.179,-0.258 0.272,-0.384 a 88.416,88.416 0 0 1 3.502,-4.383 c 0.258,-0.304 0.514,-0.61 0.776,-0.912 a 85.568,85.568 0 0 1 3.737,-4.019 c 0.254,-0.254 0.513,-0.502 0.769,-0.752 a 79.54,79.54 0 0 1 4.231,-3.897 l 0.009,-0.009 c 5.751,-19.264 24.321,-31.102 45.142,-31.102 8.38,0 16.714,2.415 23.856,6.784 7.326,4.481 12.321,8.859 16.199,16.512 l 0.058,0.115 c 0.098,0.194 0.208,0.38 0.304,0.576 l 0.01,0.019 0.023,0.015 a 77.21,77.21 0 0 1 9.281,6.745 85.958,85.958 0 0 1 2.892,2.554 c 0.312,0.286 0.633,0.558 0.941,0.849 0.006,-0.012 0.011,-0.024 0.018,-0.035 a 0.175,0.175 0 0 1 0.011,-0.024 c 0.106,-0.217 0.21,-0.438 0.317,-0.652 2.934,-18.517 12.256,-28.614 21.89,-28.614 7.262,0 12.541,4.33 16.528,15.986 l 0.041,0.125 0.01,0.014 a 43.54,43.54 0 0 1 3.287,4.048 l -0.002,-0.001 c 0.021,0.028 0.043,0.054 0.064,0.083 l -0.001,-0.001 0.001,0.001 c 0.057,0.169 0.106,0.343 0.161,0.512 v -0.001 l -0.15,-0.607 C 201.251,63.937 167.691,38.391 128.163,38.391 c -49.58,0 -89.772,40.192 -89.772,89.772 0,9.774 1.562,19.184 4.462,27.94 l 0.012,-0.051 a 96.216,96.216 0 0 1 4.11,-13.879"
           inkscape:connector-curvature="0"
           style="fill:#525353" />
        <path
           id="path6071"
           d="m 214.577,129.155 -3.131,3.503 v -10e-4 l -0.007,0.023 c -0.119,0.461 -0.265,0.891 -0.426,1.306 -0.042,0.109 -0.089,0.212 -0.135,0.318 a 9.136,9.136 0 0 1 -0.403,0.837 c -0.077,0.142 -0.153,0.286 -0.236,0.419 -0.13,0.208 -0.27,0.397 -0.412,0.583 a 5.882,5.882 0 0 1 -0.648,0.719 c -0.093,0.087 -0.183,0.182 -0.281,0.26 a 4.169,4.169 0 0 1 -0.758,0.479 c -0.449,0.219 -0.92,0.347 -1.41,0.347 -2.845,0 -5.152,-3.952 -5.152,-8.828 h -10.337 l 0.006,0.008 a 328.189,328.189 0 0 1 5.734,6.812 422.71,422.71 0 0 1 5.354,6.679 l 0.26,0.329 a 573.65,573.65 0 0 1 4.964,6.43 l 0.478,0.624 a 882.471,882.471 0 0 1 5.191,6.903 89.595,89.595 0 0 0 4.708,-27.785 l -2.906,-0.11 -0.453,0.145"
           inkscape:connector-curvature="0"
           style="fill:#ffffff" />
        <path
           id="path6073"
           d="m 114.525,87.695 c 0.234,-0.018 0.468,-0.032 0.701,-0.048 a 71.221,71.221 0 0 1 4.839,-0.178 c 4.868,0 9.624,0.521 14.25,1.47 h 0.001 c 3.265,0.769 9.061,2.362 13.364,4.179 a 74.409,74.409 0 0 1 5.319,2.499 l 0.395,0.215 0.107,0.06 c 0.161,0.09 0.337,0.187 0.543,0.304 l 0.014,0.008 0.783,0.443 0.07,0.04 c 1.106,0.627 2.33,1.33 2.798,1.598 l 0.12,0.069 0.085,0.049 c -0.096,-0.196 -0.206,-0.382 -0.304,-0.576 l -0.058,-0.115 c -3.878,-7.653 -9.848,-14.217 -17.174,-18.698 -7.142,-4.369 -15.476,-6.784 -23.857,-6.784 -20.82,0 -38.415,14.024 -44.166,33.288 5.445,-4.649 11.502,-8.57 18.021,-11.547 7.602,-3.47 15.812,-5.643 24.149,-6.276"
           inkscape:connector-curvature="0" />
        <path
           id="path6075"
           d="m 213.225,99.515 -0.001,-0.001 0.001,0.001 c -0.021,-0.029 -0.043,-0.055 -0.064,-0.083 l 0.002,0.001 a 43.54,43.54 0 0 0 -3.287,-4.048 l -0.029,-0.035 a 36.477,36.477 0 0 0 -1.551,-1.585 c -0.197,-0.189 -0.401,-0.354 -0.6,-0.535 -0.329,-0.299 -0.656,-0.608 -0.99,-0.882 v 11.909 l 4.559,20.878 v -0.001 c 0.05,0.162 0.11,0.314 0.154,0.482 l 3.158,3.539 0.031,-0.035 h 3.305 c 0.004,-0.306 0.023,-0.608 0.023,-0.915 V 128.2 a 89.597,89.597 0 0 0 -4.55,-28.174 v 0.001 c -0.055,-0.169 -0.104,-0.343 -0.161,-0.512"
           inkscape:connector-curvature="0"
           style="fill:#bbbcbd" />
        <path
           id="path6077"
           d="m 181.038,94.03 c 3.659,-3.579 8.552,-6.477 13.8,-6.477 4.153,0 8.142,1.682 11.867,4.759 l 10e-4,0.036 v 0.006 -0.006 c 0.334,0.274 0.661,0.583 0.99,0.882 0.199,0.181 0.403,0.346 0.6,0.535 a 36.477,36.477 0 0 1 1.551,1.585 l 0.029,0.035 a 0.054,0.054 0 0 0 -0.009,-0.012 l -10e-4,-0.001 -0.041,-0.126 c -3.987,-11.656 -10.42,-19.229 -17.68,-19.229 -9.635,0 -17.804,13.34 -20.738,31.857 l 0.031,-0.026 c 2.502,-4.973 5.596,-9.901 9.6,-13.818 m -13.019,113.806 c 0,0 -1.297,-1.028 -2.944,-2.923 a 29.776,29.776 0 0 1 -2.139,-2.757 c -0.21,-0.306 -0.418,-0.624 -0.625,-0.952 -0.623,-0.985 -1.12,-2.184 -1.668,-3.369 -0.634,-1.372 -0.636,-2.285 -1,-3.563 a 25.167,25.167 0 0 1 -0.637,-2.863 24.633,24.633 0 0 1 -0.303,-4.728 c 0.028,-0.913 0.122,-1.858 0.259,-2.82 a 27.68,27.68 0 0 1 0.557,-2.839 c 0.726,-2.903 1.981,-5.995 3.939,-9.259 l 0.498,-1.118 c 0.64,-1.066 0.782,-1.019 1.39,-2.046 8.564,-14.453 13.184,-25.382 10.924,-42.21 a 134.228,134.228 0 0 0 -0.844,-5.156 205.23,205.23 0 0 1 -0.625,3.719 c -0.085,0.384 -0.318,0.801 -0.406,1.062 -3.72,11.01 -9.576,19.109 -18.002,28.254 a 229.879,229.879 0 0 1 -3.562,3.765 457.252,457.252 0 0 1 -6.505,6.59 c -0.912,0.907 -1.842,1.827 -2.788,2.765 -0.869,0.86 -1.95,2.699 -3.24,4.054 -0.796,2.229 -1.701,4.743 -2.466,7.387 -0.345,-0.131 -0.674,-0.248 -1.025,-0.384 -16.368,-6.331 -27.327,-14.79 -27.327,-14.79 0,0 8.432,10.979 22.638,21.285 a 46.064,46.064 0 0 0 4.059,2.628 c -0.586,9.276 3.506,18.181 21.977,20.837 3.123,0.449 6.321,0.428 9.542,0.065 -0.032,-0.096 0.18,-0.094 0.163,-0.147 -0.018,-0.054 0.172,-0.196 0.172,-0.196"
           inkscape:connector-curvature="0" />
        <path
           id="path6079"
           d="m 158.139,183.959 c 16.398,2.646 40.667,2.212 65.861,-9.584 0.607,-0.284 1.276,0.464 1.883,0.166 0,0 -17.219,17.587 -37.783,27.53 -0.601,0.29 -1.194,0.599 -1.801,0.875 -1.987,0.908 -4.008,1.699 -6.037,2.429 -3.979,1.43 -8.011,2.515 -12.014,3.016 -0.184,0.024 -0.368,0.059 -0.552,0.079 a 24.787,24.787 0 0 1 -0.075,-0.227 l -0.027,-0.083 c 0,0 -1.298,-1.029 -2.945,-2.924 a 29.219,29.219 0 0 1 -2.138,-2.757 28.651,28.651 0 0 1 -2.401,-4.21 26.292,26.292 0 0 1 -1.427,-3.837 24.719,24.719 0 0 1 -0.941,-7.591 25.68,25.68 0 0 1 0.259,-2.82 l 0.138,-0.062"
           inkscape:connector-curvature="0"
           style="fill:#9f2254" />
        <path
           id="path6081"
           d="m 146.386,165.29 a 452.312,452.312 0 0 0 6.506,-6.59 234.248,234.248 0 0 0 3.562,-3.765 c 8.425,-9.145 14.61,-17.703 18.331,-28.713 0.087,-0.261 0.175,-0.605 0.26,-0.992 l 0.04,-0.179 c 0.087,-0.411 0.172,-0.868 0.257,-1.383 0.034,-0.355 1.147,-1.071 1.178,-1.404 -0.933,-4.794 -3.083,-9.834 -5.43,-13.682 a 0.868,0.868 0 0 1 0.016,0.047 l -0.045,-0.044 c -0.308,-0.291 -0.629,-0.563 -0.941,-0.849 a 85.958,85.958 0 0 0 -2.892,-2.554 77.29,77.29 0 0 0 -9.281,-6.745 c 0.164,2.694 0.269,5.385 0.297,8.073 0.004,0.302 -0.004,0.603 -0.004,0.904 0.005,1.043 0.008,2.087 -0.012,3.13 a 125.975,125.975 0 0 1 -0.142,4.029 c -0.051,0.992 -0.114,1.982 -0.191,2.973 -0.008,0.103 -0.02,0.206 -0.027,0.309 a 110.087,110.087 0 0 1 -1.457,11.181 l -1.184,5.599 c -2.473,10.026 -7.496,19.12 -11.626,28.51 -1.095,2.49 -2.134,5.008 -3.045,7.573 l -0.258,0.724 a 170.807,170.807 0 0 1 3.3,-3.387 c 0.947,-0.937 1.877,-1.858 2.788,-2.765"
           inkscape:connector-curvature="0"
           style="fill:#fcb03f" />
        <path
           id="path6083"
           d="m 92.198,219.213 c 6.009,-2.658 11.57,-4.327 18.18,-5.63 a 73.56,73.56 0 0 0 -0.224,-4.288 391.813,391.813 0 0 0 7.808,-22.168 112.799,112.799 0 0 0 -12.534,1.937 c -3.067,0.651 -6.093,1.469 -9.094,2.373 -2.411,0.726 -4.79,1.56 -7.15,2.447 l 9.331,2.26 -7.508,23.566 1.191,-0.497"
           inkscape:connector-curvature="0"
           style="fill:#525353" />
        <path
           id="path6085"
           d="m 207.559,149.378 a 573.65,573.65 0 0 0 -4.964,-6.43 l -0.26,-0.329 a 422.71,422.71 0 0 0 -5.421,-6.761 328.189,328.189 0 0 0 -5.667,-6.73 c -0.121,-0.141 -0.242,-0.284 -0.365,-0.424 a 271.342,271.342 0 0 0 -4.816,-5.385 235.571,235.571 0 0 0 -3.011,-3.224 221.505,221.505 0 0 0 -2.389,-2.456 c -0.754,-0.769 -1.506,-1.541 -2.272,-2.297 a 188.553,188.553 0 0 0 -5.016,-4.781 115.806,115.806 0 0 0 -2.288,-2.035 0.175,0.175 0 0 0 -0.011,0.024 c 1.622,4.662 3.473,9.382 4.4,14.244 0.241,1.265 0.44,2.495 0.602,3.697 2.26,16.827 -3.132,27.814 -11.695,42.267 a 720.816,720.816 0 0 1 -1.889,3.164 c -1.958,3.266 -3.212,6.357 -3.939,9.26 a 27.952,27.952 0 0 0 -0.557,2.839 c 16.793,2.71 42.045,3.215 67.882,-9.48 0,0 -5.067,-7.447 -12.691,-17.684 a 882.471,882.471 0 0 0 -5.155,-6.855 c -0.158,-0.209 -0.319,-0.417 -0.478,-0.624"
           inkscape:connector-curvature="0"
           style="fill:#df0067" />
        <path
           id="path6087"
           d="m 90.115,223.922 8.4,-27.778 -9.331,-2.26 c -2.09,0.785 -4.161,1.622 -6.205,2.532 l -8.319,27.506 9.287,0.145 6.168,-0.145"
           inkscape:connector-curvature="0"
           style="fill:#aa9678" />
        <path
           id="path6089"
           d="m 96.02,211.904 c 0.82,0.315 1.654,0.599 2.486,0.89 a 89.463,89.463 0 0 0 29.658,5.047 89.482,89.482 0 0 0 33.528,-6.498 c 0.548,-0.22 1.085,-0.462 1.627,-0.693 a 91.66,91.66 0 0 0 2.619,-1.161 c 0.774,-0.36 1.548,-0.717 2.31,-1.098 -0.184,0.024 -0.368,0.059 -0.552,0.079 -3.221,0.363 -6.419,0.384 -9.542,-0.065 -18.471,-2.656 -22.563,-11.561 -21.977,-20.837 a 46.064,46.064 0 0 1 -4.059,-2.628 c -14.206,-10.306 -22.638,-21.285 -22.638,-21.285 0,0 10.959,8.459 27.327,14.79 0.351,0.136 0.68,0.253 1.025,0.384 0.765,-2.644 1.67,-5.158 2.466,-7.387 l 0.258,-0.724 c 0.911,-2.565 1.95,-5.083 3.045,-7.573 4.13,-9.39 9.153,-18.484 11.626,-28.51 l 1.184,-5.599 h -10.102 l -0.001,0.001 0.001,0.02 -0.004,0.002 c 0,0.027 0.004,0.054 0.004,0.083 a 12.027,12.027 0 0 1 -2.06,6.743 12.135,12.135 0 0 1 -5.306,4.368 12.01,12.01 0 0 1 -5.946,0.883 c -0.097,-0.01 -0.19,-0.031 -0.286,-0.043 -0.316,-0.041 -0.63,-0.084 -0.935,-0.147 -0.086,-0.019 -0.168,-0.046 -0.253,-0.066 -0.314,-0.072 -0.628,-0.15 -0.932,-0.247 -0.056,-0.019 -0.11,-0.042 -0.166,-0.061 -0.329,-0.111 -0.656,-0.23 -0.972,-0.368 -0.029,-0.012 -0.056,-0.027 -0.084,-0.04 a 12.088,12.088 0 0 1 -1,-0.498 l -0.015,-0.009 a 12.176,12.176 0 0 1 -2.802,-2.174 l -34.608,-8.447 h -37.77 c -0.162,0.288 -0.342,0.564 -0.501,0.853 -0.288,0.523 -0.56,1.054 -0.838,1.581 a 96.239,96.239 0 0 0 -2.62,5.342 96.97,96.97 0 0 0 -2.148,5.131 l -0.092,0.23 a 96.216,96.216 0 0 0 -4.11,13.879 c 5.946,18.136 17.515,33.72 32.638,44.704 0.44,0.319 0.904,0.603 1.35,0.915 a 89.783,89.783 0 0 0 7.943,4.979 88.844,88.844 0 0 0 11.224,5.254"
           inkscape:connector-curvature="0"
           style="fill:#ffffff" />
        <path
           id="path6091"
           d="m 186.58,233.374 a 74.559,74.559 0 0 1 -0.376,-7.224 2.649,2.649 0 0 0 -2.648,-2.649 H 72.444 a 2.65,2.65 0 0 0 -2.649,2.649 c 0,2.432 -0.143,4.838 -0.376,7.224 a 73.286,73.286 0 0 1 -1.199,7.808 c 1.611,0.852 3.235,1.681 4.887,2.467 a 78.531,78.531 0 0 0 1.932,-14.678 c 0.003,-0.057 0.009,-0.115 0.011,-0.172 h 105.9 c 0.002,0.057 0.008,0.115 0.01,0.172 a 78.615,78.615 0 0 0 1.933,14.678 129.088,129.088 0 0 0 4.887,-2.467 73.543,73.543 0 0 1 -1.2,-7.808"
           inkscape:connector-curvature="0"
           style="fill:#8b7460" />
      </g>
    </g>
  </g>
</svg>
