<?xml version="1.0" encoding="UTF-8" standalone="no"?>
<svg
   xmlns:dc="http://purl.org/dc/elements/1.1/"
   xmlns:cc="http://creativecommons.org/ns#"
   xmlns:rdf="http://www.w3.org/1999/02/22-rdf-syntax-ns#"
   xmlns:svg="http://www.w3.org/2000/svg"
   xmlns="http://www.w3.org/2000/svg"
   xmlns:sodipodi="http://sodipodi.sourceforge.net/DTD/sodipodi-0.dtd"
   xmlns:inkscape="http://www.inkscape.org/namespaces/inkscape"
   id="svg4525"
   viewBox="0 0 6.5295134 6.996"
   width="56"
   height="60"
   version="1.1"
   sodipodi:docname="logo-wordpress.svg"
   inkscape:export-filename="/home/www/neocarvajal.github.io/assets/images/logo-javascript.svg.png"
   inkscape:export-xdpi="96"
   inkscape:export-ydpi="96"
   inkscape:version="0.92.4 5da689c313, 2019-01-14">
  <metadata
     id="metadata991">
    <rdf:RDF>
      <cc:Work
         rdf:about="">
        <dc:format>image/svg+xml</dc:format>
        <dc:type
           rdf:resource="http://purl.org/dc/dcmitype/StillImage" />
        <dc:title></dc:title>
      </cc:Work>
    </rdf:RDF>
  </metadata>
  <defs
     id="defs989">
    <linearGradient
       id="a"
       y2="148.33623"
       x2="151.13584"
       y1="22.897128"
       x1="24.714632"
       gradientTransform="scale(0.99888681,1.0011144)"
       gradientUnits="userSpaceOnUse">
      <stop
         id="stop5964"
         offset="0%"
         stop-color="#387EB8" />
      <stop
         id="stop5966"
         offset="100%"
         stop-color="#366994" />
    </linearGradient>
    <linearGradient
       id="b"
       y2="231.90517"
       x2="238.2592"
       y1="103.26573"
       x1="102.48345"
       gradientTransform="scale(0.99888668,1.0011146)"
       gradientUnits="userSpaceOnUse">
      <stop
         id="stop5969"
         offset="0%"
         stop-color="#FFE052" />
      <stop
         id="stop5971"
         offset="100%"
         stop-color="#FFC331" />
    </linearGradient>
  </defs>
  <sodipodi:namedview
     pagecolor="#ffffff"
     bordercolor="#666666"
     borderopacity="1"
     objecttolerance="10"
     gridtolerance="10"
     guidetolerance="10"
     inkscape:pageopacity="0"
     inkscape:pageshadow="2"
     inkscape:window-width="1440"
     inkscape:window-height="830"
     id="namedview987"
     showgrid="false"
     inkscape:zoom="9.7889059"
     inkscape:cx="27.999998"
     inkscape:cy="30"
     inkscape:window-x="0"
     inkscape:window-y="34"
     inkscape:window-maximized="1"
     inkscape:current-layer="g5679"
     showguides="true"
     inkscape:guide-bbox="true" />
  <style
     id="style979">.st0{fill:#d4b830}.st1,.st2{opacity:.986;fill:#ebebeb;fill-opacity:0;enable-background:new}.st2{fill-opacity:.9216}.st3{fill:#fdd83c}</style>
  <style
     id="style4914">.st0{enable-background:new}.st1{opacity:.783}.st2{opacity:.576;enable-background:new}.st3{fill:none}.st4,.st5{opacity:.67;fill:url(#SVGID_1_);enable-background:new}.st5{opacity:.505;fill:url(#SVGID_2_)}.st6{fill:url(#SVGID_3_)}.st7,.st8{enable-background:new}.st7{fill:url(#SVGID_4_);opacity:.217}.st8{opacity:.276;filter:url(#l)}.st9{fill:url(#SVGID_5_)}.st10,.st11{enable-background:new}.st10{fill:url(#SVGID_6_);opacity:.453}.st11{opacity:.512;filter:url(#o)}.st12{fill:url(#SVGID_7_)}.st13,.st14{enable-background:new}.st13{fill:url(#SVGID_8_);opacity:.286}.st14{opacity:.621;filter:url(#r)}.st15{fill:url(#SVGID_9_)}.st16{filter:url(#t)}.st17{fill:url(#SVGID_10_)}.st18{opacity:.286;fill:url(#SVGID_11_);enable-background:new}.st19{fill:url(#SVGID_12_)}.st20{fill:url(#SVGID_13_)}.st21{fill:url(#SVGID_14_)}.st22{opacity:.286;fill:url(#SVGID_15_);enable-background:new}.st23{fill:url(#SVGID_16_)}.st24{opacity:.616;filter:url(#w);enable-background:new}.st25{fill:url(#SVGID_17_)}.st26{fill:none;stroke:url(#SVGID_18_);stroke-width:1.004}.st27{opacity:.325;filter:url(#A);enable-background:new}.st28{fill:url(#SVGID_19_)}.st29{fill:url(#SVGID_20_)}.st30{opacity:.478;filter:url(#D);enable-background:new}.st31{fill:url(#SVGID_21_)}.st32{opacity:.586;fill:#fff}.st32,.st33,.st34{enable-background:new}.st33{fill:url(#SVGID_22_);opacity:.251}.st34{opacity:.363;filter:url(#F)}.st35{fill:url(#SVGID_23_)}</style>
  <style
     id="style5276">.st0{display:none}.st1{display:inline}.st2{fill:#fba919}.st3{fill:#e78724}.st4{fill:#87ccee}.st5{fill:#fdc168}.st6{fill:#fff}.st7{fill:#c9c9c9}.st8{fill:#463014}</style>
  <g
     id="g5536"
     transform="translate(0.20280316,1.5097568)">
    <g
       id="g5679"
       transform="matrix(0.1166,0,0,0.1166,-5.6517503,-0.17812309)">
      <path
         id="path6161"
         d="m 50.911964,18.578719 c 0,9.575454 5.478903,17.850334 13.424226,21.771777 L 52.974182,8.7337987 a 23.72847,24.09912 0 0 0 -2.062218,9.8449203 z m 39.898617,-1.220861 c 0,-2.989483 -1.057398,-5.059963 -1.964197,-6.671412 C 87.63895,8.6938011 86.50719,7.0063018 86.50719,5.0136572 c 0,-2.2238036 1.660647,-4.29390826 3.999841,-4.29390826 0.105631,0 0.205621,0.0131449 0.30862,0.0197163 -4.237667,-3.94313154 -9.883605,-6.35049204 -16.084623,-6.35049204 -8.321354,0 -15.642302,4.3361593 -19.901282,10.9038209 0.558743,0.016903 1.085378,0.029108 1.532861,0.029108 2.491205,0 6.34777,-0.3067414 6.34777,-0.3067414 1.284143,-0.076994 1.435497,1.8382877 0.152853,1.9926447 0,0 -1.290435,0.154168 -2.7264,0.2305017 L 68.811213,33.44154 74.02375,17.56423 70.312621,7.2376488 C 69.030073,7.1615977 67.814939,7.007147 67.814939,7.007147 66.531451,6.9301525 66.681864,4.9375121 67.965351,5.0145022 c 0,0 3.933743,0.3069292 6.273971,0.3069292 2.491205,0 6.348051,-0.3069292 6.348051,-0.3069292 1.284708,-0.076994 1.435873,1.838288 0.152856,1.9926448 0,0 -1.293064,0.1541692 -2.726403,0.2305018 l 8.607909,26.0046572 2.375814,-8.063158 c 1.029513,-3.345984 1.813313,-5.749215 1.813313,-7.820351 z m -15.661643,3.336974 -7.1465,21.090785 a 23.817971,24.190019 0 0 0 6.72859,0.985571 c 2.773629,0 5.433649,-0.487012 7.909833,-1.371275 A 2.091607,2.1242787 0 0 1 82.471199,41.066602 Z M 95.631216,6.9726888 c 0.10234,0.7705625 0.160459,1.5976466 0.160459,2.4874491 0,2.4548711 -0.451427,5.2143201 -1.811059,8.6647151 L 86.704922,39.489329 C 93.786168,35.29532 98.549058,27.503792 98.549058,18.579377 98.549434,14.373444 97.491569,10.418389 95.63103,6.9726888 Z M 74.731028,-9.6196941 c -15.309739,0 -27.765764,12.6497204 -27.765764,28.1984131 0,15.550665 12.456025,28.199917 27.765764,28.199917 15.30918,0 27.766892,-12.649252 27.766892,-28.199917 C 102.49773,3.0300263 90.040395,-9.6196941 74.731311,-9.6196941 Z m 0,55.1058301 c -14.607438,0 -26.492698,-12.070697 -26.492698,-26.907417 0,-14.8356859 11.884605,-26.9054425 26.492698,-26.9054425 14.607064,0 26.491192,12.0697566 26.491192,26.9054425 0,14.83672 -11.884128,26.907417 -26.491192,26.907417 z"
         inkscape:connector-curvature="0"
         style="fill:#464342;stroke-width:0.21945649" />
    </g>
  </g>
</svg>
